<?xml version="1.0" encoding="UTF-8" standalone="no"?>
<!DOCTYPE svg PUBLIC "-//W3C//DTD SVG 1.1//EN" "http://www.w3.org/Graphics/SVG/1.1/DTD/svg11.dtd">
<svg width="100%" height="100%" viewBox="0 0 380 373" version="1.1" xmlns="http://www.w3.org/2000/svg" xmlns:xlink="http://www.w3.org/1999/xlink" xml:space="preserve" xmlns:serif="http://www.serif.com/" style="fill-rule:evenodd;clip-rule:evenodd;stroke-linejoin:round;stroke-miterlimit:2;">
    <g transform="matrix(0.1,0,0,-0.1,0,373)">
        <path d="M1655,3421C1611,3416 1550,3408 1520,3401L1464,3389L1501,3247C1525,3155 1542,3106 1550,3108C1556,3109 1582,3113 1606,3117L1651,3123L1648,3045L1645,2968L1555,2945C1426,2912 1364,2887 1259,2824L1167,2768L1058,2877L1105,2910C1138,2933 1150,2947 1145,2958C1133,2990 1005,3189 996,3190C977,3190 850,3091 761,3005C671,2918 540,2757 540,2733C540,2727 595,2688 662,2646L784,2571L852,2673L907,2617L963,2562L917,2489C892,2448 860,2390 846,2360C817,2295 770,2138 770,2104C770,2081 768,2080 689,2080L607,2080L613,2124C617,2148 621,2174 622,2180C626,2196 348,2262 338,2248C308,2198 295,1832 319,1700C338,1597 335,1601 383,1611C536,1642 625,1667 622,1679C621,1686 617,1712 613,1736L607,1780L689,1780C768,1780 770,1779 770,1756C770,1722 817,1565 846,1500C860,1470 892,1412 917,1371L963,1298L853,1188L820,1234C803,1260 783,1280 776,1278C752,1272 540,1135 540,1125C540,1103 674,939 761,855C860,760 983,666 1001,672C1006,674 1044,729 1085,795L1158,914L1108,948L1057,982L1169,1094L1197,1074C1293,1003 1496,918 1601,904L1650,897L1650,737L1606,743C1582,747 1556,751 1549,752C1532,756 1466,479 1482,469C1509,452 1667,436 1800,436C1957,436 2109,455 2117,475C2121,487 2073,736 2064,752C2062,755 2045,754 2027,749C2010,744 1985,740 1972,740C1950,740 1949,742 1952,817L1955,894L2010,905C2136,931 2270,986 2377,1058L2431,1094L2542,983L2496,950C2471,931 2450,913 2450,908C2450,893 2595,670 2605,670C2627,670 2791,804 2875,891C2960,979 3060,1107 3060,1126C3060,1135 2846,1272 2824,1278C2817,1280 2797,1260 2780,1234L2747,1188L2637,1298L2677,1362C2753,1481 2799,1595 2825,1720L2836,1775L2913,1778C2999,1781 3000,1780 2981,1699L2973,1664L3112,1632C3189,1614 3255,1602 3259,1604C3277,1615 3295,1792 3293,1945C3292,2082 3274,2239 3258,2255C3256,2258 3191,2244 3114,2226C3024,2204 2976,2188 2978,2180C2979,2173 2983,2148 2987,2124L2993,2080L2833,2080L2826,2129C2812,2234 2727,2437 2656,2533L2636,2561L2692,2616L2747,2672L2779,2626C2797,2601 2814,2580 2817,2580C2827,2580 3049,2720 3055,2731C3065,2746 2975,2865 2880,2964C2833,3013 2751,3086 2696,3127L2598,3201L2519,3074C2475,3004 2441,2946 2442,2945C2444,2944 2467,2928 2494,2910L2542,2877L2432,2767L2359,2813C2318,2838 2260,2870 2230,2884C2165,2913 2008,2960 1974,2960C1951,2960 1950,2962 1950,3041L1950,3123L1994,3117C2018,3113 2044,3109 2050,3108C2067,3104 2132,3382 2116,3392C2077,3414 1783,3433 1655,3421ZM1878,2660C2008,2581 1952,2380 1800,2380C1715,2380 1650,2445 1650,2530C1650,2615 1715,2680 1800,2680C1827,2680 1858,2672 1878,2660ZM1428,2510C1558,2431 1502,2230 1350,2230C1198,2230 1142,2431 1272,2510C1315,2536 1385,2536 1428,2510ZM2328,2510C2458,2431 2402,2230 2250,2230C2165,2230 2100,2295 2100,2380C2100,2496 2229,2570 2328,2510ZM1278,2060C1408,1981 1352,1780 1200,1780C1048,1780 992,1981 1122,2060C1165,2086 1235,2086 1278,2060ZM1878,2060C2008,1981 1952,1780 1800,1780C1715,1780 1650,1845 1650,1930C1650,2046 1779,2120 1878,2060ZM2481,2057C2547,2013 2570,1918 2530,1852C2451,1722 2250,1778 2250,1930C2250,2049 2384,2122 2481,2057ZM1428,1610C1558,1531 1502,1330 1350,1330C1198,1330 1142,1531 1272,1610C1315,1636 1385,1636 1428,1610ZM2328,1610C2458,1531 2402,1330 2250,1330C2165,1330 2100,1395 2100,1480C2100,1596 2229,1670 2328,1610ZM1878,1460C2005,1382 1952,1180 1805,1180C1649,1180 1591,1380 1722,1460C1765,1486 1835,1486 1878,1460Z" style="fill:white;fill-rule:nonzero;"/>
    </g>
</svg>
