<?xml version="1.0" encoding="UTF-8" standalone="no"?>
<!DOCTYPE svg PUBLIC "-//W3C//DTD SVG 1.1//EN" "http://www.w3.org/Graphics/SVG/1.1/DTD/svg11.dtd">
<svg width="100%" height="100%" viewBox="0 0 400 286" version="1.1" xmlns="http://www.w3.org/2000/svg" xmlns:xlink="http://www.w3.org/1999/xlink" xml:space="preserve" xmlns:serif="http://www.serif.com/" style="fill-rule:evenodd;clip-rule:evenodd;stroke-linejoin:round;stroke-miterlimit:2;">
    <g id="svgg">
        <path id="path1" d="M-0,116.791L-0,233.582L9.376,224.208C18.453,215.131 19.035,214.602 19.467,215.033C19.988,215.554 19.608,215.976 9.833,225.75L0,235.582L0,285.667L30.673,285.667L42.748,273.625C50.133,266.26 55.094,261.438 55.521,261.208C57.966,259.895 60.658,262.437 59.658,265.114C59.561,265.373 54.989,270.082 49.452,275.625L39.42,285.667L49.54,285.667L72.296,262.899C84.811,250.376 95.284,239.989 95.567,239.816C97.198,238.822 99.272,240.359 98.923,242.303C98.825,242.846 96.343,245.387 77.449,264.292L56.085,285.667L400,285.667L400,48.584L370.458,78.104C330.41,118.122 318.804,129.627 317.803,130.301C307.633,137.15 295.504,124.928 302.34,114.719C302.635,114.278 324.73,92.054 351.439,65.332L400,16.748L400,0L380.042,0.015C363.733,0.027 360.22,0.068 360.833,0.239C365.456,1.527 367.727,6.513 365.655,10.826C365.054,12.076 290.978,86.404 289.25,87.49C283.785,90.926 276.725,86.298 277.825,80C278.293,77.321 275.027,80.757 316.56,39.243C355.208,0.612 354.789,1.018 356.643,0.386L357.75,0.009L340.252,0.004L322.754,0L312.499,10.25C303.111,19.634 302.198,20.5 301.698,20.5C300.799,20.5 300.231,19.775 300.326,18.75C300.344,18.556 304.189,14.579 309.553,9.208L318.749,-0L0,0L-0,116.791M299.45,95.954C300.327,96.528 300.586,97.833 300.011,98.777C299.625,99.409 279.364,119.672 278.433,120.356C276.296,121.926 273.905,119.534 275.48,117.4C276.362,116.203 296.757,96.016 297.348,95.754C297.99,95.469 298.832,95.549 299.45,95.954M351.125,128.759C351.86,129.594 351.678,130.032 349.792,131.971C343.699,138.235 290.164,191.741 289.8,191.932C288.705,192.503 287.591,191.872 287.591,190.681L287.591,189.993L318.17,159.396C334.989,142.569 348.975,128.655 349.25,128.477C349.882,128.068 350.614,128.179 351.125,128.759M286.436,132.437C287.521,132.952 288.03,134.127 287.667,135.277C287.452,135.955 186.783,236.905 185.8,237.428C184.051,238.357 181.896,236.803 182.244,234.864C182.367,234.177 283.389,132.874 284.417,132.407C285.089,132.101 285.749,132.111 286.436,132.437M114.614,138.657C115.813,139.202 116.256,140.891 115.473,141.936C114.272,143.541 18.198,239.357 17.536,239.61C15.77,240.285 14.069,238.569 14.674,236.723C14.93,235.944 111.785,138.983 112.71,138.581C113.432,138.267 113.786,138.281 114.614,138.657M126.999,160.581C133.076,162.198 135.784,169.244 132.401,174.638C131.255,176.465 39.669,267.803 38.25,268.534C29.204,273.193 20.267,262.787 26.387,254.72C26.901,254.042 92.635,188.281 110.417,170.655C119.762,161.392 119.903,161.271 122.083,160.644C123.336,160.284 125.767,160.253 126.999,160.581M192.301,266.375C192.357,267.246 192.197,267.162 193.917,267.23C194.283,267.245 194.782,267.206 195.025,267.145C195.921,266.918 196.209,268.054 195.338,268.383C194.665,268.637 194.618,268.789 194.511,271.083C194.412,273.191 194.167,273.623 193.424,273.006C193.257,272.868 193.182,272.87 193.134,273.014C193.039,273.299 192.17,273.065 191.58,272.595C191.087,272.202 191.083,272.183 191.027,270.266C190.972,268.349 190.968,268.333 190.569,268.333L190.167,268.333L190.166,270.375C190.165,272.676 190.011,273.431 189.39,274.167C188.157,275.633 185.754,275.558 184.718,274.022C184.007,272.966 185.09,272.525 186,273.5C186.724,274.275 188.074,274.118 188.487,273.212C188.657,272.838 188.646,272.808 188.381,272.927C187.188,273.465 185.646,273.136 184.761,272.157C182.627,269.795 185.196,266.033 188.112,267.251C188.551,267.435 188.772,267.453 188.931,267.321C189.052,267.221 189.36,267.154 189.617,267.171C190.969,267.261 191,267.242 191,266.323L191,265.48L191.625,265.532C192.244,265.583 192.25,265.591 192.301,266.375M176.697,267.381C178.755,268.251 178.829,271.692 176.814,272.824C176.062,273.247 174.426,273.296 173.878,272.913C173.519,272.661 173.516,272.668 173.466,273.705L173.417,274.75L172.872,274.802L172.327,274.855L172.372,271.052L172.417,267.25L172.801,267.196C173.012,267.166 173.283,267.223 173.403,267.322C173.562,267.454 173.774,267.434 174.186,267.249C174.838,266.955 175.811,267.006 176.697,267.381M182.288,267.252C183.476,267.729 183.684,268.286 183.63,270.851L183.583,273.083L182.583,273.083L182.5,270.983C182.403,268.549 182.302,268.333 181.255,268.333C180.117,268.333 179.959,268.637 179.846,271.045L179.75,273.083L178.75,273.083L178.75,267.25L179.709,267.235C180.237,267.227 180.718,267.171 180.779,267.11C180.964,266.925 181.628,266.987 182.288,267.252M199.791,267.256C200.59,267.59 200.961,267.938 201.367,268.733L201.698,269.382L201.992,268.733C203.278,265.892 207.833,266.904 207.833,270.03L207.833,270.5L205.417,270.5C202.715,270.5 202.557,270.583 203.487,271.513C204.193,272.218 205.334,272.212 206,271.5C206.901,270.535 207.977,270.824 207.288,271.846C205.835,274.002 202.356,273.442 201.769,270.958L201.66,270.5L196.811,270.5L196.919,270.875C197.259,272.056 198.945,272.414 199.859,271.5C200.393,270.966 201.5,270.776 201.5,271.218C201.5,272.817 198.393,273.778 196.846,272.656C193.86,270.494 196.399,265.839 199.791,267.256M213.66,267.247C213.923,267.382 214.288,267.685 214.472,267.919L214.807,268.344L215.049,267.998C216.159,266.414 219.685,267.005 219.86,268.804C219.875,268.958 219.932,268.671 219.985,268.167L220.083,267.25L220.75,267.237C221.117,267.229 221.697,267.165 222.04,267.093C222.519,266.994 222.819,267.041 223.335,267.296C223.995,267.622 224.016,267.623 224.622,267.314C225.373,266.931 225.861,266.918 226.59,267.264C227.587,267.737 227.681,268.05 227.63,270.709L227.583,273.083L226.583,273.083L226.5,270.785C226.412,268.35 226.348,268.175 225.554,268.169C224.77,268.164 224.5,268.868 224.5,270.919C224.5,272.977 224.367,273.295 223.585,273.099L223.167,272.994L223.167,270.903C223.167,268.638 223.038,268.167 222.423,268.167C221.599,268.167 221.333,268.839 221.333,270.919C221.333,272.977 221.2,273.295 220.419,273.099C220.039,273.003 220,272.913 219.997,272.122L219.995,271.25L219.622,271.902C218.755,273.42 216.291,273.668 215.103,272.355L214.79,272.01L214.464,272.425C212.866,274.456 209.585,272.948 209.591,270.184C209.596,267.912 211.83,266.3 213.66,267.247M174.575,268.425C172.812,269.295 173.388,272.092 175.318,272.037C177.273,271.981 177.715,269.157 175.888,268.394C175.22,268.115 175.203,268.115 174.575,268.425M186.219,268.492C184.665,269.44 185.234,271.979 187.005,271.995C188.858,272.011 189.463,269.406 187.83,268.441C187.226,268.084 186.869,268.096 186.219,268.492M198,268.277C197.602,268.434 197,269.038 197,269.279C197,269.447 197.38,269.5 198.583,269.5C200.313,269.5 200.501,269.372 199.774,268.689C199.373,268.313 198.451,268.098 198,268.277M203.993,268.341C203.76,268.431 203.437,268.729 203.275,269.002L202.981,269.5L204.657,269.5C206.442,269.5 206.552,269.437 205.958,268.754C205.537,268.269 204.659,268.084 203.993,268.341M211.885,268.335C210.949,268.712 210.593,270.541 211.277,271.459C211.944,272.355 213.293,272.379 213.5,271.499C213.561,271.237 213.733,271.064 213.965,271.03C214.487,270.955 214.516,269.581 214,269.417C213.817,269.358 213.667,269.238 213.667,269.148C213.667,268.525 212.61,268.043 211.885,268.335M216.253,268.565C215.088,269.731 215.747,272.033 217.247,272.033C218.007,272.033 218.448,271.646 218.683,270.772C219.18,268.925 217.458,267.36 216.253,268.565M192.333,269.988L192.333,271.642L192.833,271.892L193.333,272.141L193.333,268.333L192.333,268.333L192.333,269.988M209.083,272.75C209.083,273.166 209.017,273.25 208.685,273.25C208.151,273.25 207.859,272.787 208.162,272.423C208.537,271.971 209.083,272.165 209.083,272.75" style="fill:rgb(29,22,47);"/>
        <rect x="-93.119" y="-54.233" width="525.601" height="342.014" style="fill:rgb(29,22,47);"/>
        <path id="path2" d="M317.247,1.542L315.75,3.083L317.292,1.587C318.724,0.197 318.909,-0 318.788,0C318.763,0 318.07,0.694 317.247,1.542M311.913,6.875L310.417,8.417L311.958,6.92C313.39,5.53 313.576,5.333 313.455,5.333C313.43,5.333 312.736,6.027 311.913,6.875M307.497,11.292L305.583,13.25L307.542,11.336C309.361,9.558 309.576,9.333 309.456,9.333C309.431,9.333 308.55,10.215 307.497,11.292M303.08,15.708L301.583,17.25L303.125,15.753C304.557,14.364 304.743,14.167 304.622,14.167C304.597,14.167 303.903,14.86 303.08,15.708M327.052,28.792C314.174,41.483 279.76,76.169 281.827,74.375C282.153,74.091 301.914,74.068 301.739,74.351C301.448,74.822 302.497,74.223 303.333,73.441C309.433,67.731 357.833,19.247 357.833,18.846C357.833,18.72 354.789,18.667 347.58,18.667L337.327,18.667L327.052,28.792M389.35,27.954C388.607,28.095 306.5,110.074 306.5,110.676C306.5,110.773 312.209,110.833 321.488,110.833C334.862,110.833 336.481,110.861 336.529,111.091C336.649,111.663 337.482,110.847 371.875,76.503L400,48.418L400,27.833L394.875,27.856C392.056,27.869 389.57,27.913 389.35,27.954M339.223,36.875C339.287,37.032 339.352,37.021 339.485,36.833C339.628,36.63 339.662,36.627 339.664,36.817C339.668,37.153 324.658,52.259 322.693,53.897L321.968,54.5L301.64,54.5L302.362,53.768C314.33,41.624 319.203,36.875 319.787,36.787C321.073,36.592 339.142,36.675 339.223,36.875M391.035,57.121C388.3,60.002 369.318,78.909 367.767,80.295L366.618,81.323L351.716,81.331C338.293,81.338 336.788,81.312 336.549,81.073C336.306,80.829 337.382,79.71 349.244,67.862C356.525,60.589 362.239,55.008 362.283,55.125C362.392,55.415 362.667,55.386 362.667,55.084C362.667,54.87 392.78,54.576 393.148,54.787C393.184,54.808 392.233,55.858 391.035,57.121M291.384,101.649C290.056,102.769 281.726,111.009 278.729,114.167L276.277,116.75L278.93,116.833L281.583,116.917L282.415,116.25C284.539,114.547 297.5,101.448 297.5,101.005C297.5,100.895 296.581,100.833 294.925,100.833L292.351,100.833L291.384,101.649M291.578,107.064C290.634,108.158 287.876,110.721 287.417,110.931C287.233,111.015 285.996,111.046 284.667,111L282.25,110.917L286.93,106.167L292.353,106.167L291.578,107.064M349.577,132.042L348.75,132.917L349.625,132.09C350.106,131.635 350.5,131.241 350.5,131.215C350.5,131.09 350.346,131.229 349.577,132.042M241.083,175.542L198.417,218.25L241.125,175.583C280.833,135.914 283.908,132.833 283.792,132.833C283.769,132.833 264.55,152.052 241.083,175.542M347.242,134.375L346.583,135.083L347.292,134.425C347.95,133.812 348.077,133.667 347.95,133.667C347.923,133.667 347.605,133.985 347.242,134.375M344.163,137.458L342.583,139.083L344.208,137.503C345.718,136.036 345.909,135.833 345.788,135.833C345.764,135.833 345.032,136.565 344.163,137.458M63.583,187.542L14.917,236.25L63.625,187.583C108.912,142.335 112.408,138.833 112.292,138.833C112.269,138.833 90.35,160.752 63.583,187.542M341.075,140.542L340.417,141.25L341.125,140.591C341.784,139.978 341.91,139.833 341.784,139.833C341.757,139.833 341.438,140.152 341.075,140.542M339.245,142.375L338.25,143.417L339.292,142.422C339.865,141.875 340.333,141.406 340.333,141.38C340.333,141.257 340.169,141.407 339.245,142.375M111.497,145.792L109.75,147.583L111.542,145.836C113.206,144.214 113.409,144 113.289,144C113.264,144 112.458,144.806 111.497,145.792M335.077,146.542L334.25,147.417L335.125,146.59C335.606,146.135 336,145.741 336,145.715C336,145.59 335.846,145.729 335.077,146.542M106.667,150.583C105.984,151.271 105.463,151.833 105.508,151.833C105.554,151.833 106.15,151.271 106.833,150.583C107.516,149.896 108.037,149.333 107.992,149.333C107.946,149.333 107.35,149.896 106.667,150.583M330.667,150.917C330.262,151.329 329.968,151.667 330.014,151.667C330.06,151.667 330.428,151.329 330.833,150.917C331.238,150.504 331.532,150.167 331.486,150.167C331.44,150.167 331.072,150.504 330.667,150.917M329,152.583C328.595,152.996 328.301,153.333 328.347,153.333C328.393,153.333 328.762,152.996 329.167,152.583C329.572,152.171 329.865,151.833 329.819,151.833C329.774,151.833 329.405,152.171 329,152.583M101.662,155.625L100.583,156.75L101.708,155.671C102.327,155.078 102.833,154.572 102.833,154.546C102.833,154.424 102.664,154.58 101.662,155.625M324.745,156.875L323.75,157.917L324.792,156.922C325.365,156.375 325.833,155.906 325.833,155.88C325.833,155.757 325.669,155.907 324.745,156.875M320.661,160.958L319.75,161.917L320.708,161.006C321.599,160.159 321.743,160 321.619,160C321.593,160 321.162,160.431 320.661,160.958M314.911,166.708L313.917,167.75L314.958,166.755C315.926,165.831 316.076,165.667 315.953,165.667C315.927,165.667 315.459,166.135 314.911,166.708M310.244,171.375L309.417,172.25L310.292,171.423C310.773,170.968 311.167,170.574 311.167,170.548C311.167,170.424 311.012,170.562 310.244,171.375M305.245,176.375L304.25,177.417L305.292,176.422C305.865,175.875 306.333,175.406 306.333,175.38C306.333,175.257 306.169,175.407 305.245,176.375M300.245,181.375L299.25,182.417L300.292,181.422C301.259,180.498 301.41,180.333 301.286,180.333C301.261,180.333 300.792,180.802 300.245,181.375M110.648,183.333L98.046,183.417L96.398,184.906C90.096,190.602 28.849,252.333 29.5,252.333C29.592,252.333 29.667,252.258 29.667,252.167C29.667,251.927 53.74,251.938 54.188,252.178C54.715,252.46 54.839,252.34 86.924,220.256C120.305,186.876 123.694,183.442 123.389,183.31C123.313,183.277 117.579,183.287 110.648,183.333M295.324,186.292L294.75,186.917L295.375,186.342C295.719,186.026 296,185.745 296,185.717C296,185.59 295.859,185.71 295.324,186.292M290.158,191.458L289.583,192.083L290.208,191.509C290.552,191.193 290.833,190.912 290.833,190.884C290.833,190.757 290.692,190.877 290.158,191.458M100.333,205.828C100.333,205.917 100.455,205.943 100.603,205.886C100.838,205.796 100.845,205.833 100.662,206.175C100.324,206.807 80.055,227 79.759,227C79.611,227 79.446,227.112 79.394,227.25C79.278,227.552 54.092,227.639 54.194,227.337C54.425,226.66 74.8,206.461 75.757,205.96C76.344,205.653 100.333,205.524 100.333,205.828M9.249,224.375L-0.083,233.75L9.292,224.417C14.448,219.284 18.667,215.065 18.667,215.042C18.667,214.925 17.925,215.661 9.249,224.375M16.748,218.708L14.083,221.417L16.792,218.752C18.281,217.286 19.5,216.068 19.5,216.044C19.5,215.925 19.224,216.192 16.748,218.708M196.331,220.292L194.417,222.25L196.375,220.336C197.452,219.283 198.333,218.402 198.333,218.378C198.333,218.258 198.108,218.473 196.331,220.292M9.249,226.208L4.583,230.917L9.292,226.251C13.667,221.915 14.075,221.5 13.957,221.5C13.934,221.5 11.815,223.619 9.249,226.208M188.582,228.042L182.917,233.75L188.625,228.084C191.765,224.968 194.333,222.399 194.333,222.376C194.333,222.258 193.848,222.736 188.582,228.042M2.164,233.292L-0.083,235.583L2.208,233.336C3.469,232.099 4.5,231.068 4.5,231.044C4.5,230.924 4.252,231.163 2.164,233.292M72.416,262.875L49.583,285.75L72.458,262.917C85.04,250.359 95.333,240.065 95.333,240.042C95.333,239.925 93.644,241.608 72.416,262.875M191.997,266.383L192.077,267.25L192.133,266.519C192.163,266.117 192.127,265.727 192.052,265.652C191.978,265.577 191.953,265.906 191.997,266.383M222.127,267.285C222.334,267.324 222.634,267.323 222.794,267.281C222.953,267.239 222.783,267.207 222.417,267.209C222.05,267.211 221.92,267.245 222.127,267.285M225.375,267.282C225.535,267.323 225.798,267.323 225.958,267.282C226.119,267.24 225.987,267.205 225.667,267.205C225.346,267.205 225.215,267.24 225.375,267.282M189.9,270C189.9,271.421 189.926,272.002 189.957,271.292C189.988,270.581 189.988,269.419 189.957,268.708C189.926,267.998 189.9,268.579 189.9,270M192.583,268.146L192.083,268.253L192.065,271.417L192.122,269.875C192.177,268.374 192.189,268.333 192.58,268.333C192.8,268.333 193.027,268.258 193.083,268.167C193.14,268.075 193.163,268.009 193.135,268.02C193.107,268.031 192.858,268.087 192.583,268.146M204.375,268.115C204.535,268.157 204.798,268.157 204.958,268.115C205.119,268.073 204.987,268.039 204.667,268.039C204.346,268.039 204.215,268.073 204.375,268.115M47.723,268.976C46.711,269.783 32.197,284.12 31.492,285.01L30.972,285.667L39.269,285.667L47.29,277.625C54.828,270.067 56.167,268.681 56.167,268.434C56.167,268.379 54.448,268.333 52.348,268.333L48.53,268.333L47.723,268.976M172.402,271.333C172.402,272.938 172.427,273.594 172.457,272.792C172.488,271.99 172.488,270.677 172.457,269.875C172.427,269.073 172.402,269.729 172.402,271.333M227.565,270.75C227.565,271.942 227.592,272.407 227.624,271.785C227.656,271.162 227.656,270.187 227.623,269.618C227.591,269.049 227.564,269.558 227.565,270.75M214.548,270.083C214.549,270.542 214.581,270.709 214.62,270.456C214.658,270.203 214.657,269.828 214.617,269.623C214.578,269.418 214.546,269.625 214.548,270.083M224.229,271.083C224.229,272.092 224.257,272.483 224.29,271.952C224.323,271.422 224.323,270.597 224.289,270.119C224.256,269.641 224.229,270.075 224.229,271.083M221.062,271.167C221.062,272.129 221.089,272.523 221.123,272.042C221.157,271.56 221.157,270.773 221.123,270.292C221.089,269.81 221.062,270.204 221.062,271.167M209.705,270.167C209.705,270.487 209.74,270.619 209.782,270.458C209.823,270.298 209.823,270.035 209.782,269.875C209.74,269.715 209.705,269.846 209.705,270.167M174.958,273.118C175.165,273.157 175.502,273.157 175.708,273.118C175.915,273.078 175.746,273.045 175.333,273.045C174.921,273.045 174.752,273.078 174.958,273.118M186.794,273.118C187.001,273.158 187.301,273.156 187.46,273.115C187.62,273.073 187.45,273.04 187.083,273.042C186.717,273.044 186.586,273.078 186.794,273.118M198.292,273.118C198.498,273.157 198.835,273.157 199.042,273.118C199.248,273.078 199.079,273.045 198.667,273.045C198.254,273.045 198.085,273.078 198.292,273.118M204.292,273.118C204.498,273.157 204.835,273.157 205.042,273.118C205.248,273.078 205.079,273.045 204.667,273.045C204.254,273.045 204.085,273.078 204.292,273.118M186.875,275.115C187.035,275.157 187.298,275.157 187.458,275.115C187.619,275.073 187.487,275.039 187.167,275.039C186.846,275.039 186.715,275.073 186.875,275.115M48.667,275.689C48.667,275.779 48.76,275.803 48.875,275.742C48.99,275.68 47.579,277.136 45.741,278.975C43.902,280.815 42.215,282.39 41.991,282.476C41.517,282.658 35.057,282.706 34.625,282.531C34.19,282.354 40.868,275.719 41.583,275.616C42.641,275.465 48.667,275.527 48.667,275.689" style="fill:rgb(116,20,71);"/>
        <path id="path3" d="M191.375,265.611C191.248,265.662 191.167,266.012 191.167,266.503C191.167,267.261 191.138,267.314 190.708,267.364C189.998,267.446 189.951,268.167 190.655,268.167L191.167,268.167L191.183,269.792C191.207,272.093 191.426,272.568 192.625,272.914C193.186,273.076 193.153,272.29 192.588,272.032C192.063,271.793 191.974,271.412 192.034,269.668L192.083,268.252L192.583,268.166C192.942,268.104 193.083,267.986 193.083,267.75C193.083,267.513 192.942,267.396 192.583,267.334C192.122,267.255 192.077,267.185 192,266.429C191.918,265.621 191.785,265.447 191.375,265.611M174.457,267.405C174.112,267.528 173.728,267.714 173.602,267.818C173.424,267.966 173.355,267.934 173.286,267.67C173.233,267.467 173.059,267.333 172.849,267.333C172.505,267.333 172.5,267.39 172.5,271.012L172.5,274.69L172.875,274.637C173.212,274.589 173.255,274.477 173.3,273.542C173.353,272.417 173.375,272.393 174,272.75C174.229,272.881 174.837,272.991 175.35,272.994C178.607,273.015 179.238,268.344 176.105,267.414C175.126,267.123 175.245,267.124 174.457,267.405M180.735,267.338C180.452,267.398 180.13,267.503 180.02,267.571C179.909,267.639 179.71,267.606 179.578,267.496C178.928,266.956 178.823,267.36 178.871,270.205C178.915,272.79 178.932,272.917 179.25,272.917C179.561,272.917 179.589,272.778 179.667,270.86C179.764,268.465 179.94,268.167 181.257,268.167C182.489,268.167 182.646,268.49 182.709,271.167C182.747,272.792 182.774,272.917 183.083,272.917C183.539,272.917 183.678,269.162 183.253,268.34C182.851,267.561 181.749,267.123 180.735,267.338M186.083,267.415C184.334,268.03 183.678,270.111 184.701,271.797C185.396,272.941 187.289,273.364 188.464,272.637L189.051,272.275L188.936,272.762C188.615,274.126 186.766,274.665 185.833,273.667C185.099,272.881 184.362,273.093 184.911,273.932C185.936,275.496 188.567,275.341 189.454,273.665C190,272.633 190.045,267.333 189.508,267.333C189.33,267.333 189.119,267.449 189.04,267.589C188.913,267.815 188.81,267.806 188.157,267.51C187.287,267.115 186.979,267.101 186.083,267.415M197.583,267.417C195.342,268.209 195.092,271.232 197.154,272.621C198.365,273.437 200.422,272.945 201.075,271.683C201.53,270.803 200.827,270.732 200.029,271.577C199.077,272.587 197.619,272.477 196.951,271.347C196.46,270.515 196.497,270.5 199.005,270.5C201.642,270.5 201.695,270.473 201.348,269.318C200.843,267.63 199.253,266.827 197.583,267.417M203.564,267.486C201.992,268.199 201.385,270.224 202.301,271.7C203.392,273.459 206.117,273.492 207.14,271.759C207.673,270.854 207.047,270.668 206.254,271.496C205.306,272.485 203.924,272.508 203.169,271.549C202.414,270.589 202.584,270.5 205.172,270.5C207.8,270.5 207.86,270.47 207.523,269.343C206.993,267.576 205.209,266.738 203.564,267.486M211.253,267.548C209.401,268.597 209.344,271.568 211.152,272.787C212.273,273.542 214.036,273.12 214.507,271.984L214.719,271.471L215.124,271.989C217.188,274.626 220.929,271.946 219.606,268.779C218.805,266.862 216.062,266.659 215.023,268.44C214.855,268.728 214.811,268.711 214.406,268.205C213.542,267.123 212.417,266.889 211.253,267.548M193.574,267.549C193.294,268.276 193.591,272.917 193.917,272.917C194.227,272.917 194.256,272.778 194.333,270.917C194.424,268.729 194.46,268.615 195.177,268.245C195.706,267.971 195.745,267.882 195.505,267.502C195.377,267.299 195.257,267.289 194.842,267.446C194.545,267.558 194.296,267.574 194.241,267.485C194.102,267.26 193.669,267.301 193.574,267.549M220.268,267.597C220.212,267.742 220.167,268.898 220.167,270.167C220.167,272.705 220.221,273 220.684,273C220.972,273 221,272.858 221.001,271.375C221.002,268.919 221.395,268 222.442,268C223.19,268 223.333,268.381 223.336,270.387C223.338,272.572 223.423,273 223.853,273C224.14,273 224.167,272.853 224.167,271.245C224.167,268.816 224.556,268 225.713,268C226.505,268 226.652,268.411 226.703,270.757C226.749,272.853 226.761,272.918 227.125,272.97C227.499,273.023 227.5,273.015 227.5,270.665L227.5,268.308L227.013,267.821C226.408,267.216 225.213,267.14 224.429,267.657C223.948,267.974 223.937,267.974 223.532,267.656C223.085,267.304 222.018,267.223 221.499,267.5C221.29,267.612 221.153,267.612 221.084,267.5C220.923,267.24 220.38,267.304 220.268,267.597M176.419,268.455C177.142,268.98 177.432,270.026 177.097,270.903C176.466,272.556 174.564,272.766 173.66,271.284C172.493,269.369 174.642,267.166 176.419,268.455M188.204,268.451C189.94,270.022 188.516,272.894 186.401,272.086C184.723,271.445 184.62,268.958 186.242,268.226C186.863,267.946 187.76,268.049 188.204,268.451M199.4,268.232C199.963,268.468 200.5,269.064 200.5,269.454C200.5,269.614 200.025,269.667 198.572,269.667C196.65,269.667 196.645,269.666 196.759,269.292C197.086,268.226 198.259,267.756 199.4,268.232M205.578,268.237C206.046,268.432 206.667,269.196 206.667,269.575C206.667,269.625 205.804,269.667 204.75,269.667C202.646,269.667 202.529,269.598 203.19,268.759C203.789,267.996 204.585,267.822 205.578,268.237M213.521,268.435C213.693,268.591 213.833,268.818 213.833,268.939C213.833,269.061 214.021,269.207 214.25,269.265C214.825,269.409 214.897,271 214.328,271C214.142,271 213.943,271.131 213.887,271.292C213.383,272.717 211.504,272.681 210.899,271.234C210.047,269.194 212.025,267.082 213.521,268.435M218.131,268.26C219.82,269.443 218.865,272.626 216.929,272.263C215.713,272.035 215.058,270.18 215.744,268.907C216.214,268.033 217.362,267.722 218.131,268.26M208.389,272.595C208.25,272.957 208.603,273.297 208.855,273.045C209.069,272.831 208.937,272.333 208.667,272.333C208.569,272.333 208.444,272.451 208.389,272.595" style="fill:rgb(246,246,247);"/>
        <path id="path4" d="M356.643,0.386C354.85,0.997 354.683,1.152 340.334,15.485C332.771,23.04 328.997,26.846 331.946,23.944L337.309,18.667L347.571,18.667C354.851,18.667 357.833,18.719 357.833,18.848C357.833,18.948 355.644,21.254 352.967,23.973C350.291,26.692 351.931,25.092 356.611,20.417C365.987,11.052 365.954,11.092 366.364,8.617C367.255,3.238 361.808,-1.374 356.643,0.386M385.333,31.452C377.312,39.493 374.837,42.018 379.833,37.064C387.273,29.686 389.018,28.036 389.479,27.945C389.789,27.883 392.282,27.833 395.021,27.833L400,27.833L400,22.333C400,19.308 399.981,16.833 399.958,16.833C399.935,16.833 393.354,23.412 385.333,31.452M371.84,76.542C337.766,110.572 336.65,111.665 336.529,111.091C336.481,110.861 334.862,110.833 321.488,110.833C312.209,110.833 306.5,110.773 306.5,110.676C306.5,110.59 311.164,105.808 316.864,100.051L327.229,89.583L315.764,101C303.025,113.687 302.415,114.338 301.496,116.25C296.603,126.43 308.245,136.559 317.701,130.35C318.769,129.649 400.33,48.541 400,48.508C399.954,48.504 387.282,61.119 371.84,76.542M286.976,68.792C278.27,77.532 278.252,77.554 277.825,80C276.728,86.285 283.812,90.941 289.231,87.496C289.849,87.104 312.951,64.25 312.73,64.25C312.705,64.25 310.787,66.125 308.467,68.417C303.116,73.702 302.504,74.272 302.021,74.417C301.75,74.498 301.661,74.477 301.739,74.351C301.913,74.07 282.155,74.091 281.825,74.373C281.204,74.902 284.909,71.085 289.748,66.208C292.681,63.252 295.041,60.833 294.992,60.833C294.943,60.833 291.335,64.415 286.976,68.792M313.828,63.125L312.917,64.083L313.875,63.172C314.765,62.326 314.91,62.167 314.786,62.167C314.76,62.167 314.329,62.598 313.828,63.125M327.74,89.042L327.25,89.583L327.792,89.094C328.297,88.638 328.41,88.5 328.281,88.5C328.252,88.5 328.009,88.744 327.74,89.042M297.381,95.74C297.087,95.871 294.758,98.065 292.206,100.614C289.654,103.164 288.395,104.456 289.408,103.486C292.43,100.594 291.931,100.833 294.929,100.833C297.879,100.833 297.846,100.808 296.633,102.135C296.156,102.657 296.686,102.183 297.811,101.083C299.987,98.956 300.333,98.486 300.333,97.667C300.333,96.181 298.734,95.138 297.381,95.74M292.913,106.042L291.417,107.583L292.958,106.087C293.806,105.264 294.5,104.57 294.5,104.545C294.5,104.424 294.303,104.61 292.913,106.042M288.997,109.958L287.417,111.583L289.042,110.003C290.551,108.536 290.742,108.333 290.622,108.333C290.597,108.333 289.866,109.065 288.997,109.958M278.063,114.708C274.579,118.226 274.239,118.993 275.595,120.272C276.997,121.594 277.771,121.203 281.75,117.156C283.217,115.665 283.816,114.99 283.083,115.655L281.749,116.866L279.089,116.842C277.626,116.829 276.402,116.791 276.369,116.758C276.336,116.725 277.299,115.679 278.509,114.432C279.719,113.186 280.68,112.167 280.644,112.167C280.608,112.167 279.447,113.31 278.063,114.708M318.333,159.292L287.583,190.083L318.375,159.334C347.003,130.744 349.241,128.5 349.125,128.5C349.102,128.5 335.246,142.356 318.333,159.292M236.167,187.125L185.917,237.417L236.208,187.167C282.968,140.446 286.575,136.833 286.458,136.833C286.435,136.833 263.804,159.465 236.167,187.125M342.075,139.708L341.417,140.417L342.125,139.758C342.784,139.145 342.91,139 342.784,139C342.757,139 342.438,139.319 342.075,139.708M110.577,140.375L109.75,141.25L110.625,140.423C111.106,139.968 111.5,139.574 111.5,139.548C111.5,139.424 111.346,139.562 110.577,140.375M337.167,144.583C336.484,145.271 335.963,145.833 336.008,145.833C336.054,145.833 336.65,145.271 337.333,144.583C338.016,143.896 338.537,143.333 338.492,143.333C338.446,143.333 337.85,143.896 337.167,144.583M105.833,145.083C105.15,145.771 104.629,146.333 104.675,146.333C104.721,146.333 105.317,145.771 106,145.083C106.683,144.396 107.204,143.833 107.158,143.833C107.112,143.833 106.516,144.396 105.833,145.083M111.497,145.958L109.583,147.917L111.542,146.003C113.361,144.225 113.576,144 113.456,144C113.431,144 112.55,144.881 111.497,145.958M332.412,149.375L331.25,150.583L332.458,149.421C333.581,148.342 333.743,148.167 333.621,148.167C333.595,148.167 333.051,148.71 332.412,149.375M100.913,150.042L99.583,151.417L100.958,150.087C102.235,148.853 102.409,148.667 102.288,148.667C102.263,148.667 101.644,149.285 100.913,150.042M63.333,194.125L18.083,239.417L63.375,194.167C105.485,152.095 108.741,148.833 108.625,148.833C108.602,148.833 88.221,169.215 63.333,194.125M327.33,154.458L325.75,156.083L327.375,154.503C328.884,153.036 329.076,152.833 328.955,152.833C328.93,152.833 328.199,153.565 327.33,154.458M96,154.917C95.317,155.604 94.796,156.167 94.842,156.167C94.888,156.167 95.484,155.604 96.167,154.917C96.85,154.229 97.371,153.667 97.325,153.667C97.279,153.667 96.683,154.229 96,154.917M307.083,174.708L289.917,191.917L307.125,174.75C323.123,158.791 324.408,157.5 324.291,157.5C324.268,157.5 316.525,165.244 307.083,174.708M90.913,160.042L89.417,161.583L90.958,160.087C92.39,158.697 92.576,158.5 92.455,158.5C92.43,158.5 91.736,159.194 90.913,160.042M122.083,160.644C119.903,161.271 119.762,161.391 110.417,170.657C97.288,183.673 34.833,246.065 34.833,246.164C34.833,246.211 48.314,232.785 64.791,216.329C81.269,199.872 95.492,185.734 96.398,184.912L98.046,183.417L110.706,183.333C117.668,183.287 123.397,183.301 123.435,183.362C123.562,183.569 117.333,189.864 86.932,220.256C54.832,252.346 54.715,252.46 54.188,252.178C53.74,251.938 29.667,251.927 29.667,252.167C29.667,252.258 29.592,252.333 29.5,252.333C29.04,252.333 29.559,251.694 32.034,249.216C33.519,247.729 34.696,246.474 34.649,246.427C34.55,246.328 27.171,253.758 26.382,254.75C20.141,262.602 29.243,273.173 38.25,268.534C39.669,267.803 131.255,176.465 132.401,174.638C136.955,167.377 130.259,158.295 122.083,160.644M85.913,165.042L84.417,166.583L85.958,165.087C87.39,163.697 87.576,163.5 87.455,163.5C87.43,163.5 86.736,164.194 85.913,165.042M81.413,169.542L79.917,171.083L81.458,169.587C82.89,168.197 83.076,168 82.955,168C82.93,168 82.236,168.694 81.413,169.542M75.997,174.958L74.417,176.583L76.042,175.003C77.551,173.536 77.742,173.333 77.622,173.333C77.597,173.333 76.866,174.065 75.997,174.958M71.33,179.625L69.75,181.25L71.375,179.67C72.269,178.801 73,178.07 73,178.045C73,177.924 72.798,178.116 71.33,179.625M66.58,184.375L65.083,185.917L66.625,184.42C68.057,183.03 68.243,182.833 68.122,182.833C68.097,182.833 67.403,183.527 66.58,184.375M61.247,189.708L59.75,191.25L61.292,189.753C62.724,188.364 62.909,188.167 62.788,188.167C62.763,188.167 62.07,188.86 61.247,189.708M56.58,194.375L54.917,196.083L56.625,194.42C58.212,192.875 58.409,192.667 58.289,192.667C58.264,192.667 57.495,193.435 56.58,194.375M51.58,199.375L49.917,201.083L51.625,199.42C53.212,197.875 53.409,197.667 53.289,197.667C53.264,197.667 52.495,198.435 51.58,199.375M46.664,204.292L44.917,206.083L46.708,204.336C48.372,202.714 48.576,202.5 48.455,202.5C48.431,202.5 47.625,203.306 46.664,204.292M41.664,209.292L39.917,211.083L41.708,209.336C42.694,208.375 43.5,207.569 43.5,207.545C43.5,207.424 43.286,207.628 41.664,209.292M36.83,214.125L35.083,215.917L36.875,214.17C38.539,212.547 38.742,212.333 38.622,212.333C38.597,212.333 37.791,213.14 36.83,214.125M18.917,214.954C19.1,214.999 19.362,215.122 19.5,215.226C19.717,215.392 19.72,215.379 19.521,215.125C19.395,214.965 19.133,214.842 18.938,214.853C18.601,214.871 18.6,214.876 18.917,214.954M31.83,219.125L30.083,220.917L31.875,219.17C33.539,217.547 33.742,217.333 33.622,217.333C33.597,217.333 32.791,218.14 31.83,219.125M26.914,224.042L25.25,225.75L26.958,224.086C28.545,222.541 28.742,222.333 28.622,222.333C28.597,222.333 27.828,223.102 26.914,224.042M21.997,228.958L20.25,230.75L22.042,229.003C23.706,227.38 23.909,227.167 23.789,227.167C23.764,227.167 22.958,227.973 21.997,228.958M17.163,233.792L15.583,235.417L17.208,233.837C18.718,232.369 18.909,232.167 18.788,232.167C18.764,232.167 18.032,232.898 17.163,233.792M182.205,235.333C182.205,235.654 182.24,235.785 182.282,235.625C182.323,235.465 182.323,235.202 182.282,235.042C182.24,234.881 182.205,235.012 182.205,235.333M98.872,241.833C98.872,242.154 98.906,242.285 98.948,242.125C98.99,241.965 98.99,241.702 98.948,241.542C98.906,241.381 98.872,241.512 98.872,241.833M91.328,243.792L90.417,244.75L91.375,243.839C91.902,243.338 92.333,242.907 92.333,242.881C92.333,242.757 92.174,242.901 91.328,243.792M77.25,264.375L55.917,285.75L77.292,264.417C97.164,244.584 98.741,243 98.625,243C98.602,243 88.983,252.619 77.25,264.375M86.328,248.792L85.417,249.75L86.375,248.839C86.902,248.338 87.333,247.907 87.333,247.881C87.333,247.757 87.174,247.901 86.328,248.792M81.411,253.708L80.417,254.75L81.458,253.755C82.031,253.208 82.5,252.739 82.5,252.714C82.5,252.59 82.336,252.741 81.411,253.708M76.577,258.542L75.75,259.417L76.625,258.59C77.438,257.821 77.576,257.667 77.452,257.667C77.426,257.667 77.032,258.06 76.577,258.542M55.536,261.208C55.16,261.415 51.794,264.621 48.056,268.333C44.319,272.046 42.158,274.246 43.255,273.222C44.352,272.198 45.625,270.971 46.083,270.495C46.542,270.018 47.28,269.337 47.723,268.981L48.53,268.333L52.348,268.333C55.021,268.333 56.167,268.389 56.167,268.517C56.167,268.618 54.2,270.7 51.797,273.142C48.494,276.499 48.881,276.139 53.381,271.667C56.656,268.413 59.447,265.514 59.584,265.225C60.811,262.64 58.003,259.854 55.536,261.208M71.578,263.542L70.583,264.583L71.625,263.589C72.198,263.041 72.667,262.573 72.667,262.547C72.667,262.424 72.502,262.574 71.578,263.542M191,266.333C191,267.241 190.967,267.261 189.617,267.171C189.36,267.154 189.052,267.221 188.931,267.321C188.772,267.453 188.551,267.435 188.112,267.251C185.017,265.958 182.501,270.139 185.01,272.406L185.668,273L185.102,273C184.776,273 184.498,273.097 184.448,273.228C184.227,273.805 185.627,275.177 186.417,275.157C186.603,275.152 186.422,275.023 186.005,274.863C185.269,274.581 184.402,273.627 184.596,273.313C184.757,273.053 185.475,273.158 185.699,273.474C186.437,274.514 188.471,274.253 188.766,273.081C188.904,272.531 188.806,272.441 188.404,272.752C188.125,272.969 188.122,272.987 188.381,272.897C188.644,272.805 188.656,272.841 188.487,273.212C188.036,274.201 186.336,274.273 185.828,273.324C185.665,273.018 185.689,272.998 186.116,273.089C186.478,273.167 186.433,273.117 185.917,272.867C182.368,271.149 184.704,265.867 188.292,267.496C188.895,267.769 189,267.779 189,267.564C189,267.387 189.137,267.327 189.458,267.364L189.917,267.417L189.968,269.5C190.058,273.15 189.776,274.065 188.338,274.792C187.93,274.998 187.691,275.167 187.806,275.167C189.413,275.167 190.151,273.517 190.176,269.872L190.193,267.333L190.664,267.333C191.118,267.333 191.138,267.298 191.193,266.416C191.224,265.912 191.194,265.5 191.125,265.5C191.056,265.5 191,265.875 191,266.333M192.14,266.432C192.196,267.311 192.21,267.333 192.701,267.333C193.166,267.333 193.199,267.372 193.131,267.833C193.091,268.108 193.12,268.333 193.196,268.333C193.682,268.333 193.273,272.8 192.768,273.004C192.42,273.144 192.421,273.146 192.792,273.156C192.998,273.162 193.167,273.082 193.167,272.98C193.167,272.847 193.237,272.851 193.407,272.992C194.166,273.622 194.416,273.193 194.426,271.25L194.435,269.417L194.379,271.208C194.322,272.986 194.319,273 193.911,273L193.5,273L193.5,267.291L194.125,267.39C194.469,267.445 194.857,267.423 194.988,267.341C195.143,267.245 194.88,267.196 194.238,267.201C192.231,267.216 192.333,267.258 192.333,266.427C192.333,266.019 192.277,265.651 192.208,265.609C192.14,265.566 192.109,265.937 192.14,266.432M174.186,267.258C173.774,267.437 173.562,267.454 173.403,267.322C172.941,266.939 172.418,267.206 172.402,267.833C172.387,268.415 172.387,268.415 172.453,267.875C172.524,267.303 173.333,267.027 173.333,267.575C173.333,267.774 173.459,267.76 174.042,267.496C175.508,266.83 176.959,267.307 177.855,268.75C178.026,269.025 178.166,269.168 178.166,269.067C178.17,267.773 175.644,266.625 174.186,267.258M181.167,267.115C183.203,267.457 183.5,267.921 183.5,270.763L183.5,273L183.089,273C182.678,273 182.677,272.995 182.622,271.083L182.567,269.166L182.575,271.125L182.583,273.083L183.583,273.083L183.63,270.851C183.69,267.959 183.04,266.931 181.205,267.023C180.759,267.045 180.758,267.047 181.167,267.115M195.478,267.207C195.603,267.367 195.67,267.684 195.627,267.911C195.584,268.138 195.612,268.284 195.691,268.235C195.94,268.081 195.844,267.383 195.542,267.145C195.278,266.938 195.272,266.944 195.478,267.207M197.417,267.236C195.344,268.159 194.847,271.023 196.518,272.415L196.917,272.748L196.55,272.33C195.323,270.934 195.396,269.044 196.722,267.881C197.284,267.386 197.623,267.268 198.917,267.111C199.249,267.07 199.166,267.044 198.667,267.031C198.254,267.021 197.692,267.113 197.417,267.236M203.417,267.313C202.639,267.671 202.271,268.047 201.947,268.816L201.713,269.373L201.315,268.651C200.939,267.971 200.005,267.163 199.6,267.169C199.499,267.171 199.715,267.341 200.08,267.548C200.86,267.99 201.492,269.007 201.5,269.833C201.503,270.154 201.578,270.529 201.667,270.667C201.784,270.848 201.829,270.707 201.831,270.151C201.84,267.453 205.023,266.174 206.921,268.107C207.355,268.549 207.371,268.553 207.141,268.167C206.535,267.15 204.692,266.728 203.417,267.313M211.08,267.405C209.615,268.283 209.138,270.319 210.038,271.854C210.446,272.55 211.261,273.294 211.431,273.125C211.469,273.087 211.306,272.952 211.069,272.826C210.129,272.322 209.499,270.574 209.824,269.367C210.437,267.091 213.368,266.345 214.484,268.181L214.787,268.679L215.069,268.248C215.224,268.011 215.591,267.671 215.884,267.493C216.177,267.314 216.34,267.168 216.245,267.167C216.003,267.166 215.291,267.676 215.028,268.039C214.818,268.329 214.79,268.324 214.472,267.919C213.694,266.93 212.24,266.71 211.08,267.405M216.877,267.12C217.131,267.158 217.506,267.157 217.711,267.117C217.916,267.078 217.708,267.046 217.25,267.048C216.792,267.049 216.624,267.081 216.877,267.12M224.596,267.327C224.024,267.618 223.917,267.627 223.607,267.41C223.416,267.276 223.182,267.167 223.088,267.167C222.994,267.168 223.154,267.313 223.444,267.49C223.967,267.808 223.979,267.808 224.611,267.479C225.704,266.909 227.464,267.522 227.513,268.49C227.521,268.646 227.559,268.671 227.607,268.552C228.009,267.563 225.853,266.686 224.596,267.327M178.736,267.394C178.693,267.505 178.679,268.831 178.704,270.34L178.75,273.083L179.75,273.083L179.846,271.045C179.924,269.386 180.001,268.937 180.256,268.629L180.571,268.25L180.17,268.62C179.798,268.964 179.763,269.138 179.697,270.995C179.626,272.975 179.621,273 179.229,273L178.833,273L178.833,267.291L179.458,267.381C179.802,267.431 180.221,267.418 180.389,267.354C180.573,267.283 180.319,267.227 179.754,267.214C179.152,267.2 178.785,267.265 178.736,267.394M218.684,267.545C220.21,268.564 220.289,271.333 218.827,272.563C218.242,273.055 218.298,273.14 218.931,272.725C219.162,272.574 219.494,272.18 219.668,271.85L219.985,271.25L219.993,272.122C219.999,272.911 220.04,273.004 220.419,273.099C221.2,273.295 221.333,272.977 221.333,270.919C221.333,269.258 221.374,268.99 221.694,268.564L222.054,268.083L221.652,268.462C221.281,268.812 221.244,268.996 221.167,270.879L221.083,272.917L220.25,272.917L220.25,267.417L220.944,267.417C221.326,267.417 221.682,267.373 221.736,267.319C221.79,267.266 221.44,267.228 220.958,267.236L220.083,267.25L220,268.167C219.931,268.924 219.895,269.007 219.793,268.644C219.666,268.191 218.633,267.167 218.303,267.167C218.201,267.167 218.372,267.337 218.684,267.545M66.494,268.625L65.583,269.583L66.542,268.672C67.432,267.826 67.576,267.667 67.453,267.667C67.427,267.667 66.995,268.098 66.494,268.625M225.79,268.186C226.454,268.378 226.49,268.517 226.542,271.083C226.584,273.125 226.868,273.698 227.517,273.049C227.6,272.966 227.467,272.907 227.206,272.91L226.75,272.917L226.667,270.694C226.577,268.312 226.443,267.978 225.593,268.015C225.363,268.025 225.428,268.081 225.79,268.186M174.263,268.419C173.711,268.837 173.335,269.561 173.355,270.167L173.375,270.75L173.488,270.083C173.635,269.219 173.957,268.73 174.581,268.422C174.857,268.286 174.971,268.175 174.833,268.176C174.696,268.177 174.439,268.286 174.263,268.419M175.925,268.401C176.482,268.644 176.927,269.218 177.045,269.846C177.119,270.238 177.122,270.237 177.144,269.804C177.171,269.271 176.21,268.163 175.73,268.173C175.514,268.178 175.575,268.249 175.925,268.401M180.96,268.285C181.168,268.324 181.468,268.323 181.627,268.281C181.786,268.239 181.617,268.207 181.25,268.209C180.883,268.211 180.753,268.245 180.96,268.285M185.733,268.733C184.052,270.414 186.325,273.274 188.132,271.753C189.329,270.746 188.973,268.145 187.641,268.171C187.518,268.174 187.615,268.299 187.857,268.449C189.46,269.444 188.843,272.011 187.005,271.995C185.234,271.979 184.665,269.44 186.219,268.492C186.511,268.314 186.649,268.168 186.525,268.167C186.401,268.167 186.045,268.422 185.733,268.733M203.625,268.347C203.368,268.496 202.833,269.326 202.833,269.575C202.833,269.625 203.658,269.667 204.667,269.667C206.709,269.667 206.854,269.568 206.067,268.718L205.634,268.25L205.984,268.731C206.517,269.464 206.456,269.5 204.657,269.5L202.981,269.5L203.275,269.002C203.437,268.729 203.76,268.435 203.993,268.349C204.226,268.263 204.304,268.189 204.167,268.185C204.029,268.18 203.785,268.253 203.625,268.347M213.258,268.576C213.483,268.801 213.667,269.058 213.667,269.148C213.667,269.238 213.817,269.358 214,269.417C214.267,269.502 214.333,269.669 214.333,270.261C214.333,270.668 214.39,271 214.458,271C214.527,271 214.557,270.625 214.526,270.167C214.486,269.601 214.395,269.333 214.24,269.333C214.114,269.333 213.922,269.165 213.812,268.958C213.61,268.58 213.182,268.182 212.966,268.172C212.901,268.169 213.033,268.351 213.258,268.576M216.016,268.6C215.06,269.817 215.634,272.21 216.867,272.147C217.207,272.13 217.213,272.119 216.917,272.047C215.645,271.74 215.235,269.583 216.253,268.565C216.472,268.346 216.585,268.167 216.505,268.167C216.424,268.167 216.204,268.362 216.016,268.6M218.118,268.49C219.197,269.497 218.861,271.736 217.583,272.047C217.258,272.126 217.259,272.128 217.594,272.147C219.04,272.229 219.428,268.787 218.032,268.254C217.833,268.178 217.858,268.247 218.118,268.49M222.98,268.447C223.089,268.66 223.167,269.684 223.167,270.903L223.167,272.994L223.585,273.099C224.367,273.295 224.5,272.977 224.5,270.919C224.5,269.258 224.541,268.99 224.86,268.564L225.22,268.083L224.819,268.462C224.447,268.812 224.41,268.996 224.333,270.879L224.25,272.917L223.417,272.917L223.333,270.716C223.274,269.156 223.183,268.452 223.021,268.299C222.829,268.118 222.822,268.141 222.98,268.447M191.062,270.083C191.063,271.092 191.09,271.483 191.123,270.952C191.157,270.422 191.156,269.597 191.123,269.119C191.089,268.641 191.062,269.075 191.062,270.083M192.202,269.954C192.167,271.619 192.594,272.629 193.112,272.111C193.167,272.055 193.018,271.935 192.779,271.844C192.356,271.683 192.344,271.637 192.291,269.965L192.237,268.25L192.202,269.954M194.7,268.533C194.59,268.643 194.506,268.887 194.513,269.075C194.524,269.357 194.555,269.338 194.69,268.969C194.781,268.722 194.981,268.487 195.135,268.446C195.363,268.386 195.367,268.368 195.158,268.353C195.016,268.342 194.81,268.423 194.7,268.533M197.173,268.698C196.423,269.504 196.66,269.667 198.583,269.667C200.162,269.667 200.333,269.637 200.333,269.365C200.333,269.075 199.768,268.333 199.548,268.333C199.49,268.333 199.605,268.507 199.804,268.719C200.447,269.403 200.295,269.5 198.583,269.5C196.871,269.5 196.72,269.403 197.362,268.719C197.562,268.507 197.677,268.333 197.619,268.333C197.561,268.333 197.36,268.497 197.173,268.698M211.268,268.647C210.483,269.514 210.607,271.14 211.516,271.904C212.377,272.629 213.47,272.35 213.754,271.333C213.833,271.052 213.816,270.971 213.702,271.083C213.609,271.175 213.506,271.398 213.473,271.58C213.395,272.014 212.635,272.279 212.059,272.074C210.954,271.68 210.535,269.877 211.306,268.834C211.721,268.273 211.7,268.169 211.268,268.647M178.217,270.167C178.217,270.671 178.248,270.877 178.286,270.625C178.324,270.373 178.324,269.96 178.286,269.708C178.248,269.456 178.217,269.662 178.217,270.167M207.631,270C207.591,270.275 207.62,270.5 207.696,270.5C207.771,270.5 207.833,270.275 207.833,270C207.833,269.725 207.804,269.5 207.769,269.5C207.733,269.5 207.671,269.725 207.631,270M177,270.644C177,271.122 176.372,271.812 175.781,271.983C175.34,272.111 175.316,272.139 175.642,272.152C176.129,272.17 177.167,271.171 177.167,270.683C177.167,270.491 177.129,270.333 177.083,270.333C177.037,270.333 177,270.473 177,270.644M196.765,270.833C197.065,272.155 198.821,272.607 199.916,271.644C200.244,271.357 200.48,271.091 200.443,271.054C200.405,271.016 200.146,271.213 199.866,271.493C198.956,272.403 197.457,272.125 196.914,270.946C196.726,270.539 196.692,270.513 196.765,270.833M202.84,270.641C202.794,272.228 205.588,272.738 206.358,271.283C206.487,271.039 206.381,271.098 206.042,271.458C205.148,272.409 203.595,272.137 203.073,270.937C202.948,270.651 202.843,270.518 202.84,270.641M173.5,270.95C173.5,271.29 174.515,272.167 174.888,272.15C175.233,272.134 175.234,272.128 174.917,272.025C174.404,271.858 174.089,271.622 173.782,271.171C173.627,270.945 173.5,270.845 173.5,270.95M201.333,271.251C201.333,271.419 200.995,271.882 200.58,272.279C200.166,272.675 199.9,273 199.989,273C200.444,273 201.694,271.305 201.432,271.043C201.378,270.989 201.333,271.082 201.333,271.251M207.333,271.502C207.216,271.783 206.85,272.243 206.519,272.524C206.188,272.805 206.067,272.959 206.25,272.866C206.841,272.567 207.826,271.27 207.619,271.064C207.578,271.023 207.449,271.22 207.333,271.502M177.922,271.483C177.863,271.671 177.499,272.099 177.115,272.436C176.552,272.929 176.515,272.991 176.924,272.758C177.45,272.458 178.285,271.396 178.123,271.234C178.072,271.183 177.982,271.295 177.922,271.483M214.541,272.059C214.258,272.68 213.553,273.07 212.508,273.184L211.583,273.284L212.383,273.309C213.282,273.336 213.98,273.04 214.464,272.425L214.79,272.01L215.103,272.355C215.49,272.783 216.217,273.169 216.617,273.159C216.782,273.155 216.617,273.045 216.25,272.915C215.883,272.784 215.392,272.443 215.159,272.157L214.734,271.636L214.541,272.059M202.5,272.23C202.935,272.719 203.806,273.25 203.945,273.111C203.989,273.067 203.865,272.979 203.668,272.917C203.472,272.855 203.035,272.57 202.697,272.283C202.121,271.794 202.109,271.791 202.5,272.23M208.162,272.423C207.859,272.787 208.151,273.25 208.685,273.25C209.017,273.25 209.083,273.166 209.083,272.75C209.083,272.165 208.537,271.971 208.162,272.423M208.97,272.793C209.01,273.074 208.94,273.167 208.688,273.167C208.289,273.167 208.1,272.915 208.235,272.563C208.377,272.192 208.908,272.358 208.97,272.793M173.333,273.583C173.333,274.686 172.682,275.269 172.448,274.375C172.392,274.161 172.367,274.187 172.353,274.469C172.336,274.807 172.401,274.848 172.875,274.802L173.417,274.75L173.466,273.705C173.516,272.668 173.519,272.661 173.878,272.913C174.078,273.052 174.353,273.167 174.489,273.167C174.625,273.167 174.443,273.017 174.083,272.833C173.724,272.65 173.408,272.5 173.381,272.5C173.355,272.5 173.333,272.987 173.333,273.583M61.742,273.375L61.083,274.083L61.792,273.425C62.45,272.812 62.577,272.667 62.45,272.667C62.423,272.667 62.105,272.985 61.742,273.375M197.24,272.907C197.418,273.05 197.681,273.161 197.824,273.154C198.048,273.142 198.049,273.128 197.833,273.048C197.696,272.997 197.433,272.886 197.25,272.802C196.922,272.651 196.922,272.652 197.24,272.907M37.495,278.792L36.417,279.917L37.542,278.838C38.587,277.836 38.743,277.667 38.62,277.667C38.595,277.667 38.088,278.173 37.495,278.792M42.332,282.625L39.25,285.75L42.375,282.668C44.094,280.973 45.5,279.567 45.5,279.543C45.5,279.425 45.195,279.722 42.332,282.625" style="fill:rgb(76,26,77);"/>
        <path id="path0" d="M309.681,9.202C300.323,18.569 300.073,18.854 300.522,19.655C301.459,21.326 301.462,21.323 312.749,10.017L322.749,0L318.874,0L309.681,9.202M319.787,36.787C319.203,36.875 314.33,41.624 302.362,53.768L301.64,54.5L321.968,54.5L322.693,53.897C324.658,52.259 339.668,37.153 339.664,36.817C339.662,36.627 339.628,36.63 339.485,36.833C339.352,37.021 339.287,37.032 339.223,36.875C339.142,36.675 321.073,36.592 319.787,36.787M377.875,54.793C364.51,54.83 362.667,54.865 362.667,55.084C362.667,55.386 362.392,55.415 362.283,55.125C362.239,55.008 356.525,60.589 349.244,67.862C337.382,79.71 336.306,80.829 336.549,81.073C336.788,81.312 338.293,81.338 351.716,81.331L366.618,81.323L367.767,80.295C370.7,77.674 393.355,54.905 393.148,54.787C393.113,54.767 386.24,54.769 377.875,54.793M284.59,108.542L282.25,110.917L284.667,111C285.996,111.046 287.233,111.015 287.417,110.931C287.876,110.721 290.634,108.158 291.578,107.064L292.353,106.167L286.93,106.167L284.59,108.542M318.783,158.958C301.932,175.802 288.037,189.786 287.906,190.033C287.379,191.025 287.966,192 289.089,192C290.053,192 351.333,130.618 351.333,129.652C351.333,128.895 350.738,128.333 349.938,128.333C349.472,128.333 346.356,131.397 318.783,158.958M284.25,132.651C282.889,133.511 182.521,234.247 182.411,234.864C182.076,236.727 183.83,238.137 185.525,237.368C186.402,236.97 287.195,136.219 287.488,135.447C288.269,133.395 286.072,131.499 284.25,132.651M112.583,138.808C112.308,138.987 90.165,161.06 63.375,187.859L14.667,236.585L14.667,237.301C14.667,239.075 16.181,240.093 17.716,239.35C18.84,238.806 115.42,142.067 115.642,141.263C116.141,139.456 114.101,137.819 112.583,138.808M75.757,205.96C74.8,206.461 54.425,226.66 54.194,227.337C54.092,227.639 79.278,227.552 79.394,227.25C79.446,227.112 79.611,227 79.759,227C80.055,227 100.324,206.807 100.662,206.175C100.845,205.833 100.838,205.796 100.603,205.886C100.455,205.943 100.333,205.917 100.333,205.828C100.333,205.524 76.344,205.653 75.757,205.96M9.375,224.371L-0,233.751L0,235.416L9.755,225.666C17.994,217.432 19.502,215.852 19.463,215.5C19.345,214.44 18.986,214.755 9.375,224.371M95.583,239.984C95.308,240.158 84.883,250.508 72.417,262.983L49.75,285.667L55.92,285.667L77.282,264.292C96.434,245.128 98.656,242.851 98.759,242.285C99.092,240.44 97.121,239.012 95.583,239.984M41.583,275.616C40.868,275.719 34.19,282.354 34.625,282.531C35.057,282.706 41.517,282.658 41.991,282.476C42.215,282.39 43.902,280.815 45.741,278.975C47.579,277.136 48.99,275.68 48.875,275.742C48.76,275.803 48.667,275.779 48.667,275.689C48.667,275.527 42.641,275.465 41.583,275.616" style="fill:rgb(195,39,53);"/>
        <path id="path11" serif:id="path1" d="M-0,116.791L-0,233.582L9.376,224.208C18.453,215.131 19.035,214.602 19.467,215.033C19.988,215.554 19.608,215.976 9.833,225.75L0,235.582L0,285.667L30.673,285.667L42.748,273.625C50.133,266.26 55.094,261.438 55.521,261.208C57.966,259.895 60.658,262.437 59.658,265.114C59.561,265.373 54.989,270.082 49.452,275.625L39.42,285.667L49.54,285.667L72.296,262.899C84.811,250.376 95.284,239.989 95.567,239.816C97.198,238.822 99.272,240.359 98.923,242.303C98.825,242.846 96.343,245.387 77.449,264.292L56.085,285.667L400,285.667L400,48.584L370.458,78.104C330.41,118.122 318.804,129.627 317.803,130.301C307.633,137.15 295.504,124.928 302.34,114.719C302.635,114.278 324.73,92.054 351.439,65.332L400,16.748L400,0L380.042,0.015C363.733,0.027 360.22,0.068 360.833,0.239C365.456,1.527 367.727,6.513 365.655,10.826C365.054,12.076 290.978,86.404 289.25,87.49C283.785,90.926 276.725,86.298 277.825,80C278.293,77.321 275.027,80.757 316.56,39.243C355.208,0.612 354.789,1.018 356.643,0.386L357.75,0.009L340.252,0.004L322.754,0L312.499,10.25C303.111,19.634 302.198,20.5 301.698,20.5C300.799,20.5 300.231,19.775 300.326,18.75C300.344,18.556 304.189,14.579 309.553,9.208L318.749,-0L0,0L-0,116.791M299.45,95.954C300.327,96.528 300.586,97.833 300.011,98.777C299.625,99.409 279.364,119.672 278.433,120.356C276.296,121.926 273.905,119.534 275.48,117.4C276.362,116.203 296.757,96.016 297.348,95.754C297.99,95.469 298.832,95.549 299.45,95.954M351.125,128.759C351.86,129.594 351.678,130.032 349.792,131.971C343.699,138.235 290.164,191.741 289.8,191.932C288.705,192.503 287.591,191.872 287.591,190.681L287.591,189.993L318.17,159.396C334.989,142.569 348.975,128.655 349.25,128.477C349.882,128.068 350.614,128.179 351.125,128.759M286.436,132.437C287.521,132.952 288.03,134.127 287.667,135.277C287.452,135.955 186.783,236.905 185.8,237.428C184.051,238.357 181.896,236.803 182.244,234.864C182.367,234.177 283.389,132.874 284.417,132.407C285.089,132.101 285.749,132.111 286.436,132.437M114.614,138.657C115.813,139.202 116.256,140.891 115.473,141.936C114.272,143.541 18.198,239.357 17.536,239.61C15.77,240.285 14.069,238.569 14.674,236.723C14.93,235.944 111.785,138.983 112.71,138.581C113.432,138.267 113.786,138.281 114.614,138.657M126.999,160.581C133.076,162.198 135.784,169.244 132.401,174.638C131.255,176.465 39.669,267.803 38.25,268.534C29.204,273.193 20.267,262.787 26.387,254.72C26.901,254.042 92.635,188.281 110.417,170.655C119.762,161.392 119.903,161.271 122.083,160.644C123.336,160.284 125.767,160.253 126.999,160.581M192.301,266.375C192.357,267.246 192.197,267.162 193.917,267.23C194.283,267.245 194.782,267.206 195.025,267.145C195.921,266.918 196.209,268.054 195.338,268.383C194.665,268.637 194.618,268.789 194.511,271.083C194.412,273.191 194.167,273.623 193.424,273.006C193.257,272.868 193.182,272.87 193.134,273.014C193.039,273.299 192.17,273.065 191.58,272.595C191.087,272.202 191.083,272.183 191.027,270.266C190.972,268.349 190.968,268.333 190.569,268.333L190.167,268.333L190.166,270.375C190.165,272.676 190.011,273.431 189.39,274.167C188.157,275.633 185.754,275.558 184.718,274.022C184.007,272.966 185.09,272.525 186,273.5C186.724,274.275 188.074,274.118 188.487,273.212C188.657,272.838 188.646,272.808 188.381,272.927C187.188,273.465 185.646,273.136 184.761,272.157C182.627,269.795 185.196,266.033 188.112,267.251C188.551,267.435 188.772,267.453 188.931,267.321C189.052,267.221 189.36,267.154 189.617,267.171C190.969,267.261 191,267.242 191,266.323L191,265.48L191.625,265.532C192.244,265.583 192.25,265.591 192.301,266.375M176.697,267.381C178.755,268.251 178.829,271.692 176.814,272.824C176.062,273.247 174.426,273.296 173.878,272.913C173.519,272.661 173.516,272.668 173.466,273.705L173.417,274.75L172.872,274.802L172.327,274.855L172.372,271.052L172.417,267.25L172.801,267.196C173.012,267.166 173.283,267.223 173.403,267.322C173.562,267.454 173.774,267.434 174.186,267.249C174.838,266.955 175.811,267.006 176.697,267.381M182.288,267.252C183.476,267.729 183.684,268.286 183.63,270.851L183.583,273.083L182.583,273.083L182.5,270.983C182.403,268.549 182.302,268.333 181.255,268.333C180.117,268.333 179.959,268.637 179.846,271.045L179.75,273.083L178.75,273.083L178.75,267.25L179.709,267.235C180.237,267.227 180.718,267.171 180.779,267.11C180.964,266.925 181.628,266.987 182.288,267.252M199.791,267.256C200.59,267.59 200.961,267.938 201.367,268.733L201.698,269.382L201.992,268.733C203.278,265.892 207.833,266.904 207.833,270.03L207.833,270.5L205.417,270.5C202.715,270.5 202.557,270.583 203.487,271.513C204.193,272.218 205.334,272.212 206,271.5C206.901,270.535 207.977,270.824 207.288,271.846C205.835,274.002 202.356,273.442 201.769,270.958L201.66,270.5L196.811,270.5L196.919,270.875C197.259,272.056 198.945,272.414 199.859,271.5C200.393,270.966 201.5,270.776 201.5,271.218C201.5,272.817 198.393,273.778 196.846,272.656C193.86,270.494 196.399,265.839 199.791,267.256M213.66,267.247C213.923,267.382 214.288,267.685 214.472,267.919L214.807,268.344L215.049,267.998C216.159,266.414 219.685,267.005 219.86,268.804C219.875,268.958 219.932,268.671 219.985,268.167L220.083,267.25L220.75,267.237C221.117,267.229 221.697,267.165 222.04,267.093C222.519,266.994 222.819,267.041 223.335,267.296C223.995,267.622 224.016,267.623 224.622,267.314C225.373,266.931 225.861,266.918 226.59,267.264C227.587,267.737 227.681,268.05 227.63,270.709L227.583,273.083L226.583,273.083L226.5,270.785C226.412,268.35 226.348,268.175 225.554,268.169C224.77,268.164 224.5,268.868 224.5,270.919C224.5,272.977 224.367,273.295 223.585,273.099L223.167,272.994L223.167,270.903C223.167,268.638 223.038,268.167 222.423,268.167C221.599,268.167 221.333,268.839 221.333,270.919C221.333,272.977 221.2,273.295 220.419,273.099C220.039,273.003 220,272.913 219.997,272.122L219.995,271.25L219.622,271.902C218.755,273.42 216.291,273.668 215.103,272.355L214.79,272.01L214.464,272.425C212.866,274.456 209.585,272.948 209.591,270.184C209.596,267.912 211.83,266.3 213.66,267.247M174.575,268.425C172.812,269.295 173.388,272.092 175.318,272.037C177.273,271.981 177.715,269.157 175.888,268.394C175.22,268.115 175.203,268.115 174.575,268.425M186.219,268.492C184.665,269.44 185.234,271.979 187.005,271.995C188.858,272.011 189.463,269.406 187.83,268.441C187.226,268.084 186.869,268.096 186.219,268.492M198,268.277C197.602,268.434 197,269.038 197,269.279C197,269.447 197.38,269.5 198.583,269.5C200.313,269.5 200.501,269.372 199.774,268.689C199.373,268.313 198.451,268.098 198,268.277M203.993,268.341C203.76,268.431 203.437,268.729 203.275,269.002L202.981,269.5L204.657,269.5C206.442,269.5 206.552,269.437 205.958,268.754C205.537,268.269 204.659,268.084 203.993,268.341M211.885,268.335C210.949,268.712 210.593,270.541 211.277,271.459C211.944,272.355 213.293,272.379 213.5,271.499C213.561,271.237 213.733,271.064 213.965,271.03C214.487,270.955 214.516,269.581 214,269.417C213.817,269.358 213.667,269.238 213.667,269.148C213.667,268.525 212.61,268.043 211.885,268.335M216.253,268.565C215.088,269.731 215.747,272.033 217.247,272.033C218.007,272.033 218.448,271.646 218.683,270.772C219.18,268.925 217.458,267.36 216.253,268.565M192.333,269.988L192.333,271.642L192.833,271.892L193.333,272.141L193.333,268.333L192.333,268.333L192.333,269.988M209.083,272.75C209.083,273.166 209.017,273.25 208.685,273.25C208.151,273.25 207.859,272.787 208.162,272.423C208.537,271.971 209.083,272.165 209.083,272.75" style="fill:rgb(29,22,47);"/>
        <path id="path21" serif:id="path2" d="M317.247,1.542L315.75,3.083L317.292,1.587C318.724,0.197 318.909,-0 318.788,0C318.763,0 318.07,0.694 317.247,1.542M311.913,6.875L310.417,8.417L311.958,6.92C313.39,5.53 313.576,5.333 313.455,5.333C313.43,5.333 312.736,6.027 311.913,6.875M307.497,11.292L305.583,13.25L307.542,11.336C309.361,9.558 309.576,9.333 309.456,9.333C309.431,9.333 308.55,10.215 307.497,11.292M303.08,15.708L301.583,17.25L303.125,15.753C304.557,14.364 304.743,14.167 304.622,14.167C304.597,14.167 303.903,14.86 303.08,15.708M327.052,28.792C314.174,41.483 279.76,76.169 281.827,74.375C282.153,74.091 301.914,74.068 301.739,74.351C301.448,74.822 302.497,74.223 303.333,73.441C309.433,67.731 357.833,19.247 357.833,18.846C357.833,18.72 354.789,18.667 347.58,18.667L337.327,18.667L327.052,28.792M389.35,27.954C388.607,28.095 306.5,110.074 306.5,110.676C306.5,110.773 312.209,110.833 321.488,110.833C334.862,110.833 336.481,110.861 336.529,111.091C336.649,111.663 337.482,110.847 371.875,76.503L400,48.418L400,27.833L394.875,27.856C392.056,27.869 389.57,27.913 389.35,27.954M339.223,36.875C339.287,37.032 339.352,37.021 339.485,36.833C339.628,36.63 339.662,36.627 339.664,36.817C339.668,37.153 324.658,52.259 322.693,53.897L321.968,54.5L301.64,54.5L302.362,53.768C314.33,41.624 319.203,36.875 319.787,36.787C321.073,36.592 339.142,36.675 339.223,36.875M391.035,57.121C388.3,60.002 369.318,78.909 367.767,80.295L366.618,81.323L351.716,81.331C338.293,81.338 336.788,81.312 336.549,81.073C336.306,80.829 337.382,79.71 349.244,67.862C356.525,60.589 362.239,55.008 362.283,55.125C362.392,55.415 362.667,55.386 362.667,55.084C362.667,54.87 392.78,54.576 393.148,54.787C393.184,54.808 392.233,55.858 391.035,57.121M291.384,101.649C290.056,102.769 281.726,111.009 278.729,114.167L276.277,116.75L278.93,116.833L281.583,116.917L282.415,116.25C284.539,114.547 297.5,101.448 297.5,101.005C297.5,100.895 296.581,100.833 294.925,100.833L292.351,100.833L291.384,101.649M291.578,107.064C290.634,108.158 287.876,110.721 287.417,110.931C287.233,111.015 285.996,111.046 284.667,111L282.25,110.917L286.93,106.167L292.353,106.167L291.578,107.064M349.577,132.042L348.75,132.917L349.625,132.09C350.106,131.635 350.5,131.241 350.5,131.215C350.5,131.09 350.346,131.229 349.577,132.042M241.083,175.542L198.417,218.25L241.125,175.583C280.833,135.914 283.908,132.833 283.792,132.833C283.769,132.833 264.55,152.052 241.083,175.542M347.242,134.375L346.583,135.083L347.292,134.425C347.95,133.812 348.077,133.667 347.95,133.667C347.923,133.667 347.605,133.985 347.242,134.375M344.163,137.458L342.583,139.083L344.208,137.503C345.718,136.036 345.909,135.833 345.788,135.833C345.764,135.833 345.032,136.565 344.163,137.458M63.583,187.542L14.917,236.25L63.625,187.583C108.912,142.335 112.408,138.833 112.292,138.833C112.269,138.833 90.35,160.752 63.583,187.542M341.075,140.542L340.417,141.25L341.125,140.591C341.784,139.978 341.91,139.833 341.784,139.833C341.757,139.833 341.438,140.152 341.075,140.542M339.245,142.375L338.25,143.417L339.292,142.422C339.865,141.875 340.333,141.406 340.333,141.38C340.333,141.257 340.169,141.407 339.245,142.375M111.497,145.792L109.75,147.583L111.542,145.836C113.206,144.214 113.409,144 113.289,144C113.264,144 112.458,144.806 111.497,145.792M335.077,146.542L334.25,147.417L335.125,146.59C335.606,146.135 336,145.741 336,145.715C336,145.59 335.846,145.729 335.077,146.542M106.667,150.583C105.984,151.271 105.463,151.833 105.508,151.833C105.554,151.833 106.15,151.271 106.833,150.583C107.516,149.896 108.037,149.333 107.992,149.333C107.946,149.333 107.35,149.896 106.667,150.583M330.667,150.917C330.262,151.329 329.968,151.667 330.014,151.667C330.06,151.667 330.428,151.329 330.833,150.917C331.238,150.504 331.532,150.167 331.486,150.167C331.44,150.167 331.072,150.504 330.667,150.917M329,152.583C328.595,152.996 328.301,153.333 328.347,153.333C328.393,153.333 328.762,152.996 329.167,152.583C329.572,152.171 329.865,151.833 329.819,151.833C329.774,151.833 329.405,152.171 329,152.583M101.662,155.625L100.583,156.75L101.708,155.671C102.327,155.078 102.833,154.572 102.833,154.546C102.833,154.424 102.664,154.58 101.662,155.625M324.745,156.875L323.75,157.917L324.792,156.922C325.365,156.375 325.833,155.906 325.833,155.88C325.833,155.757 325.669,155.907 324.745,156.875M320.661,160.958L319.75,161.917L320.708,161.006C321.599,160.159 321.743,160 321.619,160C321.593,160 321.162,160.431 320.661,160.958M314.911,166.708L313.917,167.75L314.958,166.755C315.926,165.831 316.076,165.667 315.953,165.667C315.927,165.667 315.459,166.135 314.911,166.708M310.244,171.375L309.417,172.25L310.292,171.423C310.773,170.968 311.167,170.574 311.167,170.548C311.167,170.424 311.012,170.562 310.244,171.375M305.245,176.375L304.25,177.417L305.292,176.422C305.865,175.875 306.333,175.406 306.333,175.38C306.333,175.257 306.169,175.407 305.245,176.375M300.245,181.375L299.25,182.417L300.292,181.422C301.259,180.498 301.41,180.333 301.286,180.333C301.261,180.333 300.792,180.802 300.245,181.375M110.648,183.333L98.046,183.417L96.398,184.906C90.096,190.602 28.849,252.333 29.5,252.333C29.592,252.333 29.667,252.258 29.667,252.167C29.667,251.927 53.74,251.938 54.188,252.178C54.715,252.46 54.839,252.34 86.924,220.256C120.305,186.876 123.694,183.442 123.389,183.31C123.313,183.277 117.579,183.287 110.648,183.333M295.324,186.292L294.75,186.917L295.375,186.342C295.719,186.026 296,185.745 296,185.717C296,185.59 295.859,185.71 295.324,186.292M290.158,191.458L289.583,192.083L290.208,191.509C290.552,191.193 290.833,190.912 290.833,190.884C290.833,190.757 290.692,190.877 290.158,191.458M100.333,205.828C100.333,205.917 100.455,205.943 100.603,205.886C100.838,205.796 100.845,205.833 100.662,206.175C100.324,206.807 80.055,227 79.759,227C79.611,227 79.446,227.112 79.394,227.25C79.278,227.552 54.092,227.639 54.194,227.337C54.425,226.66 74.8,206.461 75.757,205.96C76.344,205.653 100.333,205.524 100.333,205.828M9.249,224.375L-0.083,233.75L9.292,224.417C14.448,219.284 18.667,215.065 18.667,215.042C18.667,214.925 17.925,215.661 9.249,224.375M16.748,218.708L14.083,221.417L16.792,218.752C18.281,217.286 19.5,216.068 19.5,216.044C19.5,215.925 19.224,216.192 16.748,218.708M196.331,220.292L194.417,222.25L196.375,220.336C197.452,219.283 198.333,218.402 198.333,218.378C198.333,218.258 198.108,218.473 196.331,220.292M9.249,226.208L4.583,230.917L9.292,226.251C13.667,221.915 14.075,221.5 13.957,221.5C13.934,221.5 11.815,223.619 9.249,226.208M188.582,228.042L182.917,233.75L188.625,228.084C191.765,224.968 194.333,222.399 194.333,222.376C194.333,222.258 193.848,222.736 188.582,228.042M2.164,233.292L-0.083,235.583L2.208,233.336C3.469,232.099 4.5,231.068 4.5,231.044C4.5,230.924 4.252,231.163 2.164,233.292M72.416,262.875L49.583,285.75L72.458,262.917C85.04,250.359 95.333,240.065 95.333,240.042C95.333,239.925 93.644,241.608 72.416,262.875M191.997,266.383L192.077,267.25L192.133,266.519C192.163,266.117 192.127,265.727 192.052,265.652C191.978,265.577 191.953,265.906 191.997,266.383M222.127,267.285C222.334,267.324 222.634,267.323 222.794,267.281C222.953,267.239 222.783,267.207 222.417,267.209C222.05,267.211 221.92,267.245 222.127,267.285M225.375,267.282C225.535,267.323 225.798,267.323 225.958,267.282C226.119,267.24 225.987,267.205 225.667,267.205C225.346,267.205 225.215,267.24 225.375,267.282M189.9,270C189.9,271.421 189.926,272.002 189.957,271.292C189.988,270.581 189.988,269.419 189.957,268.708C189.926,267.998 189.9,268.579 189.9,270M192.583,268.146L192.083,268.253L192.065,271.417L192.122,269.875C192.177,268.374 192.189,268.333 192.58,268.333C192.8,268.333 193.027,268.258 193.083,268.167C193.14,268.075 193.163,268.009 193.135,268.02C193.107,268.031 192.858,268.087 192.583,268.146M204.375,268.115C204.535,268.157 204.798,268.157 204.958,268.115C205.119,268.073 204.987,268.039 204.667,268.039C204.346,268.039 204.215,268.073 204.375,268.115M47.723,268.976C46.711,269.783 32.197,284.12 31.492,285.01L30.972,285.667L39.269,285.667L47.29,277.625C54.828,270.067 56.167,268.681 56.167,268.434C56.167,268.379 54.448,268.333 52.348,268.333L48.53,268.333L47.723,268.976M172.402,271.333C172.402,272.938 172.427,273.594 172.457,272.792C172.488,271.99 172.488,270.677 172.457,269.875C172.427,269.073 172.402,269.729 172.402,271.333M227.565,270.75C227.565,271.942 227.592,272.407 227.624,271.785C227.656,271.162 227.656,270.187 227.623,269.618C227.591,269.049 227.564,269.558 227.565,270.75M214.548,270.083C214.549,270.542 214.581,270.709 214.62,270.456C214.658,270.203 214.657,269.828 214.617,269.623C214.578,269.418 214.546,269.625 214.548,270.083M224.229,271.083C224.229,272.092 224.257,272.483 224.29,271.952C224.323,271.422 224.323,270.597 224.289,270.119C224.256,269.641 224.229,270.075 224.229,271.083M221.062,271.167C221.062,272.129 221.089,272.523 221.123,272.042C221.157,271.56 221.157,270.773 221.123,270.292C221.089,269.81 221.062,270.204 221.062,271.167M209.705,270.167C209.705,270.487 209.74,270.619 209.782,270.458C209.823,270.298 209.823,270.035 209.782,269.875C209.74,269.715 209.705,269.846 209.705,270.167M174.958,273.118C175.165,273.157 175.502,273.157 175.708,273.118C175.915,273.078 175.746,273.045 175.333,273.045C174.921,273.045 174.752,273.078 174.958,273.118M186.794,273.118C187.001,273.158 187.301,273.156 187.46,273.115C187.62,273.073 187.45,273.04 187.083,273.042C186.717,273.044 186.586,273.078 186.794,273.118M198.292,273.118C198.498,273.157 198.835,273.157 199.042,273.118C199.248,273.078 199.079,273.045 198.667,273.045C198.254,273.045 198.085,273.078 198.292,273.118M204.292,273.118C204.498,273.157 204.835,273.157 205.042,273.118C205.248,273.078 205.079,273.045 204.667,273.045C204.254,273.045 204.085,273.078 204.292,273.118M186.875,275.115C187.035,275.157 187.298,275.157 187.458,275.115C187.619,275.073 187.487,275.039 187.167,275.039C186.846,275.039 186.715,275.073 186.875,275.115M48.667,275.689C48.667,275.779 48.76,275.803 48.875,275.742C48.99,275.68 47.579,277.136 45.741,278.975C43.902,280.815 42.215,282.39 41.991,282.476C41.517,282.658 35.057,282.706 34.625,282.531C34.19,282.354 40.868,275.719 41.583,275.616C42.641,275.465 48.667,275.527 48.667,275.689" style="fill:rgb(116,20,71);"/>
        <path id="path31" serif:id="path3" d="M191.375,265.611C191.248,265.662 191.167,266.012 191.167,266.503C191.167,267.261 191.138,267.314 190.708,267.364C189.998,267.446 189.951,268.167 190.655,268.167L191.167,268.167L191.183,269.792C191.207,272.093 191.426,272.568 192.625,272.914C193.186,273.076 193.153,272.29 192.588,272.032C192.063,271.793 191.974,271.412 192.034,269.668L192.083,268.252L192.583,268.166C192.942,268.104 193.083,267.986 193.083,267.75C193.083,267.513 192.942,267.396 192.583,267.334C192.122,267.255 192.077,267.185 192,266.429C191.918,265.621 191.785,265.447 191.375,265.611M174.457,267.405C174.112,267.528 173.728,267.714 173.602,267.818C173.424,267.966 173.355,267.934 173.286,267.67C173.233,267.467 173.059,267.333 172.849,267.333C172.505,267.333 172.5,267.39 172.5,271.012L172.5,274.69L172.875,274.637C173.212,274.589 173.255,274.477 173.3,273.542C173.353,272.417 173.375,272.393 174,272.75C174.229,272.881 174.837,272.991 175.35,272.994C178.607,273.015 179.238,268.344 176.105,267.414C175.126,267.123 175.245,267.124 174.457,267.405M180.735,267.338C180.452,267.398 180.13,267.503 180.02,267.571C179.909,267.639 179.71,267.606 179.578,267.496C178.928,266.956 178.823,267.36 178.871,270.205C178.915,272.79 178.932,272.917 179.25,272.917C179.561,272.917 179.589,272.778 179.667,270.86C179.764,268.465 179.94,268.167 181.257,268.167C182.489,268.167 182.646,268.49 182.709,271.167C182.747,272.792 182.774,272.917 183.083,272.917C183.539,272.917 183.678,269.162 183.253,268.34C182.851,267.561 181.749,267.123 180.735,267.338M186.083,267.415C184.334,268.03 183.678,270.111 184.701,271.797C185.396,272.941 187.289,273.364 188.464,272.637L189.051,272.275L188.936,272.762C188.615,274.126 186.766,274.665 185.833,273.667C185.099,272.881 184.362,273.093 184.911,273.932C185.936,275.496 188.567,275.341 189.454,273.665C190,272.633 190.045,267.333 189.508,267.333C189.33,267.333 189.119,267.449 189.04,267.589C188.913,267.815 188.81,267.806 188.157,267.51C187.287,267.115 186.979,267.101 186.083,267.415M197.583,267.417C195.342,268.209 195.092,271.232 197.154,272.621C198.365,273.437 200.422,272.945 201.075,271.683C201.53,270.803 200.827,270.732 200.029,271.577C199.077,272.587 197.619,272.477 196.951,271.347C196.46,270.515 196.497,270.5 199.005,270.5C201.642,270.5 201.695,270.473 201.348,269.318C200.843,267.63 199.253,266.827 197.583,267.417M203.564,267.486C201.992,268.199 201.385,270.224 202.301,271.7C203.392,273.459 206.117,273.492 207.14,271.759C207.673,270.854 207.047,270.668 206.254,271.496C205.306,272.485 203.924,272.508 203.169,271.549C202.414,270.589 202.584,270.5 205.172,270.5C207.8,270.5 207.86,270.47 207.523,269.343C206.993,267.576 205.209,266.738 203.564,267.486M211.253,267.548C209.401,268.597 209.344,271.568 211.152,272.787C212.273,273.542 214.036,273.12 214.507,271.984L214.719,271.471L215.124,271.989C217.188,274.626 220.929,271.946 219.606,268.779C218.805,266.862 216.062,266.659 215.023,268.44C214.855,268.728 214.811,268.711 214.406,268.205C213.542,267.123 212.417,266.889 211.253,267.548M193.574,267.549C193.294,268.276 193.591,272.917 193.917,272.917C194.227,272.917 194.256,272.778 194.333,270.917C194.424,268.729 194.46,268.615 195.177,268.245C195.706,267.971 195.745,267.882 195.505,267.502C195.377,267.299 195.257,267.289 194.842,267.446C194.545,267.558 194.296,267.574 194.241,267.485C194.102,267.26 193.669,267.301 193.574,267.549M220.268,267.597C220.212,267.742 220.167,268.898 220.167,270.167C220.167,272.705 220.221,273 220.684,273C220.972,273 221,272.858 221.001,271.375C221.002,268.919 221.395,268 222.442,268C223.19,268 223.333,268.381 223.336,270.387C223.338,272.572 223.423,273 223.853,273C224.14,273 224.167,272.853 224.167,271.245C224.167,268.816 224.556,268 225.713,268C226.505,268 226.652,268.411 226.703,270.757C226.749,272.853 226.761,272.918 227.125,272.97C227.499,273.023 227.5,273.015 227.5,270.665L227.5,268.308L227.013,267.821C226.408,267.216 225.213,267.14 224.429,267.657C223.948,267.974 223.937,267.974 223.532,267.656C223.085,267.304 222.018,267.223 221.499,267.5C221.29,267.612 221.153,267.612 221.084,267.5C220.923,267.24 220.38,267.304 220.268,267.597M176.419,268.455C177.142,268.98 177.432,270.026 177.097,270.903C176.466,272.556 174.564,272.766 173.66,271.284C172.493,269.369 174.642,267.166 176.419,268.455M188.204,268.451C189.94,270.022 188.516,272.894 186.401,272.086C184.723,271.445 184.62,268.958 186.242,268.226C186.863,267.946 187.76,268.049 188.204,268.451M199.4,268.232C199.963,268.468 200.5,269.064 200.5,269.454C200.5,269.614 200.025,269.667 198.572,269.667C196.65,269.667 196.645,269.666 196.759,269.292C197.086,268.226 198.259,267.756 199.4,268.232M205.578,268.237C206.046,268.432 206.667,269.196 206.667,269.575C206.667,269.625 205.804,269.667 204.75,269.667C202.646,269.667 202.529,269.598 203.19,268.759C203.789,267.996 204.585,267.822 205.578,268.237M213.521,268.435C213.693,268.591 213.833,268.818 213.833,268.939C213.833,269.061 214.021,269.207 214.25,269.265C214.825,269.409 214.897,271 214.328,271C214.142,271 213.943,271.131 213.887,271.292C213.383,272.717 211.504,272.681 210.899,271.234C210.047,269.194 212.025,267.082 213.521,268.435M218.131,268.26C219.82,269.443 218.865,272.626 216.929,272.263C215.713,272.035 215.058,270.18 215.744,268.907C216.214,268.033 217.362,267.722 218.131,268.26M208.389,272.595C208.25,272.957 208.603,273.297 208.855,273.045C209.069,272.831 208.937,272.333 208.667,272.333C208.569,272.333 208.444,272.451 208.389,272.595" style="fill:rgb(246,246,247);"/>
        <path id="path41" serif:id="path4" d="M356.643,0.386C354.85,0.997 354.683,1.152 340.334,15.485C332.771,23.04 328.997,26.846 331.946,23.944L337.309,18.667L347.571,18.667C354.851,18.667 357.833,18.719 357.833,18.848C357.833,18.948 355.644,21.254 352.967,23.973C350.291,26.692 351.931,25.092 356.611,20.417C365.987,11.052 365.954,11.092 366.364,8.617C367.255,3.238 361.808,-1.374 356.643,0.386M385.333,31.452C377.312,39.493 374.837,42.018 379.833,37.064C387.273,29.686 389.018,28.036 389.479,27.945C389.789,27.883 392.282,27.833 395.021,27.833L400,27.833L400,22.333C400,19.308 399.981,16.833 399.958,16.833C399.935,16.833 393.354,23.412 385.333,31.452M371.84,76.542C337.766,110.572 336.65,111.665 336.529,111.091C336.481,110.861 334.862,110.833 321.488,110.833C312.209,110.833 306.5,110.773 306.5,110.676C306.5,110.59 311.164,105.808 316.864,100.051L327.229,89.583L315.764,101C303.025,113.687 302.415,114.338 301.496,116.25C296.603,126.43 308.245,136.559 317.701,130.35C318.769,129.649 400.33,48.541 400,48.508C399.954,48.504 387.282,61.119 371.84,76.542M286.976,68.792C278.27,77.532 278.252,77.554 277.825,80C276.728,86.285 283.812,90.941 289.231,87.496C289.849,87.104 312.951,64.25 312.73,64.25C312.705,64.25 310.787,66.125 308.467,68.417C303.116,73.702 302.504,74.272 302.021,74.417C301.75,74.498 301.661,74.477 301.739,74.351C301.913,74.07 282.155,74.091 281.825,74.373C281.204,74.902 284.909,71.085 289.748,66.208C292.681,63.252 295.041,60.833 294.992,60.833C294.943,60.833 291.335,64.415 286.976,68.792M313.828,63.125L312.917,64.083L313.875,63.172C314.765,62.326 314.91,62.167 314.786,62.167C314.76,62.167 314.329,62.598 313.828,63.125M327.74,89.042L327.25,89.583L327.792,89.094C328.297,88.638 328.41,88.5 328.281,88.5C328.252,88.5 328.009,88.744 327.74,89.042M297.381,95.74C297.087,95.871 294.758,98.065 292.206,100.614C289.654,103.164 288.395,104.456 289.408,103.486C292.43,100.594 291.931,100.833 294.929,100.833C297.879,100.833 297.846,100.808 296.633,102.135C296.156,102.657 296.686,102.183 297.811,101.083C299.987,98.956 300.333,98.486 300.333,97.667C300.333,96.181 298.734,95.138 297.381,95.74M292.913,106.042L291.417,107.583L292.958,106.087C293.806,105.264 294.5,104.57 294.5,104.545C294.5,104.424 294.303,104.61 292.913,106.042M288.997,109.958L287.417,111.583L289.042,110.003C290.551,108.536 290.742,108.333 290.622,108.333C290.597,108.333 289.866,109.065 288.997,109.958M278.063,114.708C274.579,118.226 274.239,118.993 275.595,120.272C276.997,121.594 277.771,121.203 281.75,117.156C283.217,115.665 283.816,114.99 283.083,115.655L281.749,116.866L279.089,116.842C277.626,116.829 276.402,116.791 276.369,116.758C276.336,116.725 277.299,115.679 278.509,114.432C279.719,113.186 280.68,112.167 280.644,112.167C280.608,112.167 279.447,113.31 278.063,114.708M318.333,159.292L287.583,190.083L318.375,159.334C347.003,130.744 349.241,128.5 349.125,128.5C349.102,128.5 335.246,142.356 318.333,159.292M236.167,187.125L185.917,237.417L236.208,187.167C282.968,140.446 286.575,136.833 286.458,136.833C286.435,136.833 263.804,159.465 236.167,187.125M342.075,139.708L341.417,140.417L342.125,139.758C342.784,139.145 342.91,139 342.784,139C342.757,139 342.438,139.319 342.075,139.708M110.577,140.375L109.75,141.25L110.625,140.423C111.106,139.968 111.5,139.574 111.5,139.548C111.5,139.424 111.346,139.562 110.577,140.375M337.167,144.583C336.484,145.271 335.963,145.833 336.008,145.833C336.054,145.833 336.65,145.271 337.333,144.583C338.016,143.896 338.537,143.333 338.492,143.333C338.446,143.333 337.85,143.896 337.167,144.583M105.833,145.083C105.15,145.771 104.629,146.333 104.675,146.333C104.721,146.333 105.317,145.771 106,145.083C106.683,144.396 107.204,143.833 107.158,143.833C107.112,143.833 106.516,144.396 105.833,145.083M111.497,145.958L109.583,147.917L111.542,146.003C113.361,144.225 113.576,144 113.456,144C113.431,144 112.55,144.881 111.497,145.958M332.412,149.375L331.25,150.583L332.458,149.421C333.581,148.342 333.743,148.167 333.621,148.167C333.595,148.167 333.051,148.71 332.412,149.375M100.913,150.042L99.583,151.417L100.958,150.087C102.235,148.853 102.409,148.667 102.288,148.667C102.263,148.667 101.644,149.285 100.913,150.042M63.333,194.125L18.083,239.417L63.375,194.167C105.485,152.095 108.741,148.833 108.625,148.833C108.602,148.833 88.221,169.215 63.333,194.125M327.33,154.458L325.75,156.083L327.375,154.503C328.884,153.036 329.076,152.833 328.955,152.833C328.93,152.833 328.199,153.565 327.33,154.458M96,154.917C95.317,155.604 94.796,156.167 94.842,156.167C94.888,156.167 95.484,155.604 96.167,154.917C96.85,154.229 97.371,153.667 97.325,153.667C97.279,153.667 96.683,154.229 96,154.917M307.083,174.708L289.917,191.917L307.125,174.75C323.123,158.791 324.408,157.5 324.291,157.5C324.268,157.5 316.525,165.244 307.083,174.708M90.913,160.042L89.417,161.583L90.958,160.087C92.39,158.697 92.576,158.5 92.455,158.5C92.43,158.5 91.736,159.194 90.913,160.042M122.083,160.644C119.903,161.271 119.762,161.391 110.417,170.657C97.288,183.673 34.833,246.065 34.833,246.164C34.833,246.211 48.314,232.785 64.791,216.329C81.269,199.872 95.492,185.734 96.398,184.912L98.046,183.417L110.706,183.333C117.668,183.287 123.397,183.301 123.435,183.362C123.562,183.569 117.333,189.864 86.932,220.256C54.832,252.346 54.715,252.46 54.188,252.178C53.74,251.938 29.667,251.927 29.667,252.167C29.667,252.258 29.592,252.333 29.5,252.333C29.04,252.333 29.559,251.694 32.034,249.216C33.519,247.729 34.696,246.474 34.649,246.427C34.55,246.328 27.171,253.758 26.382,254.75C20.141,262.602 29.243,273.173 38.25,268.534C39.669,267.803 131.255,176.465 132.401,174.638C136.955,167.377 130.259,158.295 122.083,160.644M85.913,165.042L84.417,166.583L85.958,165.087C87.39,163.697 87.576,163.5 87.455,163.5C87.43,163.5 86.736,164.194 85.913,165.042M81.413,169.542L79.917,171.083L81.458,169.587C82.89,168.197 83.076,168 82.955,168C82.93,168 82.236,168.694 81.413,169.542M75.997,174.958L74.417,176.583L76.042,175.003C77.551,173.536 77.742,173.333 77.622,173.333C77.597,173.333 76.866,174.065 75.997,174.958M71.33,179.625L69.75,181.25L71.375,179.67C72.269,178.801 73,178.07 73,178.045C73,177.924 72.798,178.116 71.33,179.625M66.58,184.375L65.083,185.917L66.625,184.42C68.057,183.03 68.243,182.833 68.122,182.833C68.097,182.833 67.403,183.527 66.58,184.375M61.247,189.708L59.75,191.25L61.292,189.753C62.724,188.364 62.909,188.167 62.788,188.167C62.763,188.167 62.07,188.86 61.247,189.708M56.58,194.375L54.917,196.083L56.625,194.42C58.212,192.875 58.409,192.667 58.289,192.667C58.264,192.667 57.495,193.435 56.58,194.375M51.58,199.375L49.917,201.083L51.625,199.42C53.212,197.875 53.409,197.667 53.289,197.667C53.264,197.667 52.495,198.435 51.58,199.375M46.664,204.292L44.917,206.083L46.708,204.336C48.372,202.714 48.576,202.5 48.455,202.5C48.431,202.5 47.625,203.306 46.664,204.292M41.664,209.292L39.917,211.083L41.708,209.336C42.694,208.375 43.5,207.569 43.5,207.545C43.5,207.424 43.286,207.628 41.664,209.292M36.83,214.125L35.083,215.917L36.875,214.17C38.539,212.547 38.742,212.333 38.622,212.333C38.597,212.333 37.791,213.14 36.83,214.125M18.917,214.954C19.1,214.999 19.362,215.122 19.5,215.226C19.717,215.392 19.72,215.379 19.521,215.125C19.395,214.965 19.133,214.842 18.938,214.853C18.601,214.871 18.6,214.876 18.917,214.954M31.83,219.125L30.083,220.917L31.875,219.17C33.539,217.547 33.742,217.333 33.622,217.333C33.597,217.333 32.791,218.14 31.83,219.125M26.914,224.042L25.25,225.75L26.958,224.086C28.545,222.541 28.742,222.333 28.622,222.333C28.597,222.333 27.828,223.102 26.914,224.042M21.997,228.958L20.25,230.75L22.042,229.003C23.706,227.38 23.909,227.167 23.789,227.167C23.764,227.167 22.958,227.973 21.997,228.958M17.163,233.792L15.583,235.417L17.208,233.837C18.718,232.369 18.909,232.167 18.788,232.167C18.764,232.167 18.032,232.898 17.163,233.792M182.205,235.333C182.205,235.654 182.24,235.785 182.282,235.625C182.323,235.465 182.323,235.202 182.282,235.042C182.24,234.881 182.205,235.012 182.205,235.333M98.872,241.833C98.872,242.154 98.906,242.285 98.948,242.125C98.99,241.965 98.99,241.702 98.948,241.542C98.906,241.381 98.872,241.512 98.872,241.833M91.328,243.792L90.417,244.75L91.375,243.839C91.902,243.338 92.333,242.907 92.333,242.881C92.333,242.757 92.174,242.901 91.328,243.792M77.25,264.375L55.917,285.75L77.292,264.417C97.164,244.584 98.741,243 98.625,243C98.602,243 88.983,252.619 77.25,264.375M86.328,248.792L85.417,249.75L86.375,248.839C86.902,248.338 87.333,247.907 87.333,247.881C87.333,247.757 87.174,247.901 86.328,248.792M81.411,253.708L80.417,254.75L81.458,253.755C82.031,253.208 82.5,252.739 82.5,252.714C82.5,252.59 82.336,252.741 81.411,253.708M76.577,258.542L75.75,259.417L76.625,258.59C77.438,257.821 77.576,257.667 77.452,257.667C77.426,257.667 77.032,258.06 76.577,258.542M55.536,261.208C55.16,261.415 51.794,264.621 48.056,268.333C44.319,272.046 42.158,274.246 43.255,273.222C44.352,272.198 45.625,270.971 46.083,270.495C46.542,270.018 47.28,269.337 47.723,268.981L48.53,268.333L52.348,268.333C55.021,268.333 56.167,268.389 56.167,268.517C56.167,268.618 54.2,270.7 51.797,273.142C48.494,276.499 48.881,276.139 53.381,271.667C56.656,268.413 59.447,265.514 59.584,265.225C60.811,262.64 58.003,259.854 55.536,261.208M71.578,263.542L70.583,264.583L71.625,263.589C72.198,263.041 72.667,262.573 72.667,262.547C72.667,262.424 72.502,262.574 71.578,263.542M191,266.333C191,267.241 190.967,267.261 189.617,267.171C189.36,267.154 189.052,267.221 188.931,267.321C188.772,267.453 188.551,267.435 188.112,267.251C185.017,265.958 182.501,270.139 185.01,272.406L185.668,273L185.102,273C184.776,273 184.498,273.097 184.448,273.228C184.227,273.805 185.627,275.177 186.417,275.157C186.603,275.152 186.422,275.023 186.005,274.863C185.269,274.581 184.402,273.627 184.596,273.313C184.757,273.053 185.475,273.158 185.699,273.474C186.437,274.514 188.471,274.253 188.766,273.081C188.904,272.531 188.806,272.441 188.404,272.752C188.125,272.969 188.122,272.987 188.381,272.897C188.644,272.805 188.656,272.841 188.487,273.212C188.036,274.201 186.336,274.273 185.828,273.324C185.665,273.018 185.689,272.998 186.116,273.089C186.478,273.167 186.433,273.117 185.917,272.867C182.368,271.149 184.704,265.867 188.292,267.496C188.895,267.769 189,267.779 189,267.564C189,267.387 189.137,267.327 189.458,267.364L189.917,267.417L189.968,269.5C190.058,273.15 189.776,274.065 188.338,274.792C187.93,274.998 187.691,275.167 187.806,275.167C189.413,275.167 190.151,273.517 190.176,269.872L190.193,267.333L190.664,267.333C191.118,267.333 191.138,267.298 191.193,266.416C191.224,265.912 191.194,265.5 191.125,265.5C191.056,265.5 191,265.875 191,266.333M192.14,266.432C192.196,267.311 192.21,267.333 192.701,267.333C193.166,267.333 193.199,267.372 193.131,267.833C193.091,268.108 193.12,268.333 193.196,268.333C193.682,268.333 193.273,272.8 192.768,273.004C192.42,273.144 192.421,273.146 192.792,273.156C192.998,273.162 193.167,273.082 193.167,272.98C193.167,272.847 193.237,272.851 193.407,272.992C194.166,273.622 194.416,273.193 194.426,271.25L194.435,269.417L194.379,271.208C194.322,272.986 194.319,273 193.911,273L193.5,273L193.5,267.291L194.125,267.39C194.469,267.445 194.857,267.423 194.988,267.341C195.143,267.245 194.88,267.196 194.238,267.201C192.231,267.216 192.333,267.258 192.333,266.427C192.333,266.019 192.277,265.651 192.208,265.609C192.14,265.566 192.109,265.937 192.14,266.432M174.186,267.258C173.774,267.437 173.562,267.454 173.403,267.322C172.941,266.939 172.418,267.206 172.402,267.833C172.387,268.415 172.387,268.415 172.453,267.875C172.524,267.303 173.333,267.027 173.333,267.575C173.333,267.774 173.459,267.76 174.042,267.496C175.508,266.83 176.959,267.307 177.855,268.75C178.026,269.025 178.166,269.168 178.166,269.067C178.17,267.773 175.644,266.625 174.186,267.258M181.167,267.115C183.203,267.457 183.5,267.921 183.5,270.763L183.5,273L183.089,273C182.678,273 182.677,272.995 182.622,271.083L182.567,269.166L182.575,271.125L182.583,273.083L183.583,273.083L183.63,270.851C183.69,267.959 183.04,266.931 181.205,267.023C180.759,267.045 180.758,267.047 181.167,267.115M195.478,267.207C195.603,267.367 195.67,267.684 195.627,267.911C195.584,268.138 195.612,268.284 195.691,268.235C195.94,268.081 195.844,267.383 195.542,267.145C195.278,266.938 195.272,266.944 195.478,267.207M197.417,267.236C195.344,268.159 194.847,271.023 196.518,272.415L196.917,272.748L196.55,272.33C195.323,270.934 195.396,269.044 196.722,267.881C197.284,267.386 197.623,267.268 198.917,267.111C199.249,267.07 199.166,267.044 198.667,267.031C198.254,267.021 197.692,267.113 197.417,267.236M203.417,267.313C202.639,267.671 202.271,268.047 201.947,268.816L201.713,269.373L201.315,268.651C200.939,267.971 200.005,267.163 199.6,267.169C199.499,267.171 199.715,267.341 200.08,267.548C200.86,267.99 201.492,269.007 201.5,269.833C201.503,270.154 201.578,270.529 201.667,270.667C201.784,270.848 201.829,270.707 201.831,270.151C201.84,267.453 205.023,266.174 206.921,268.107C207.355,268.549 207.371,268.553 207.141,268.167C206.535,267.15 204.692,266.728 203.417,267.313M211.08,267.405C209.615,268.283 209.138,270.319 210.038,271.854C210.446,272.55 211.261,273.294 211.431,273.125C211.469,273.087 211.306,272.952 211.069,272.826C210.129,272.322 209.499,270.574 209.824,269.367C210.437,267.091 213.368,266.345 214.484,268.181L214.787,268.679L215.069,268.248C215.224,268.011 215.591,267.671 215.884,267.493C216.177,267.314 216.34,267.168 216.245,267.167C216.003,267.166 215.291,267.676 215.028,268.039C214.818,268.329 214.79,268.324 214.472,267.919C213.694,266.93 212.24,266.71 211.08,267.405M216.877,267.12C217.131,267.158 217.506,267.157 217.711,267.117C217.916,267.078 217.708,267.046 217.25,267.048C216.792,267.049 216.624,267.081 216.877,267.12M224.596,267.327C224.024,267.618 223.917,267.627 223.607,267.41C223.416,267.276 223.182,267.167 223.088,267.167C222.994,267.168 223.154,267.313 223.444,267.49C223.967,267.808 223.979,267.808 224.611,267.479C225.704,266.909 227.464,267.522 227.513,268.49C227.521,268.646 227.559,268.671 227.607,268.552C228.009,267.563 225.853,266.686 224.596,267.327M178.736,267.394C178.693,267.505 178.679,268.831 178.704,270.34L178.75,273.083L179.75,273.083L179.846,271.045C179.924,269.386 180.001,268.937 180.256,268.629L180.571,268.25L180.17,268.62C179.798,268.964 179.763,269.138 179.697,270.995C179.626,272.975 179.621,273 179.229,273L178.833,273L178.833,267.291L179.458,267.381C179.802,267.431 180.221,267.418 180.389,267.354C180.573,267.283 180.319,267.227 179.754,267.214C179.152,267.2 178.785,267.265 178.736,267.394M218.684,267.545C220.21,268.564 220.289,271.333 218.827,272.563C218.242,273.055 218.298,273.14 218.931,272.725C219.162,272.574 219.494,272.18 219.668,271.85L219.985,271.25L219.993,272.122C219.999,272.911 220.04,273.004 220.419,273.099C221.2,273.295 221.333,272.977 221.333,270.919C221.333,269.258 221.374,268.99 221.694,268.564L222.054,268.083L221.652,268.462C221.281,268.812 221.244,268.996 221.167,270.879L221.083,272.917L220.25,272.917L220.25,267.417L220.944,267.417C221.326,267.417 221.682,267.373 221.736,267.319C221.79,267.266 221.44,267.228 220.958,267.236L220.083,267.25L220,268.167C219.931,268.924 219.895,269.007 219.793,268.644C219.666,268.191 218.633,267.167 218.303,267.167C218.201,267.167 218.372,267.337 218.684,267.545M66.494,268.625L65.583,269.583L66.542,268.672C67.432,267.826 67.576,267.667 67.453,267.667C67.427,267.667 66.995,268.098 66.494,268.625M225.79,268.186C226.454,268.378 226.49,268.517 226.542,271.083C226.584,273.125 226.868,273.698 227.517,273.049C227.6,272.966 227.467,272.907 227.206,272.91L226.75,272.917L226.667,270.694C226.577,268.312 226.443,267.978 225.593,268.015C225.363,268.025 225.428,268.081 225.79,268.186M174.263,268.419C173.711,268.837 173.335,269.561 173.355,270.167L173.375,270.75L173.488,270.083C173.635,269.219 173.957,268.73 174.581,268.422C174.857,268.286 174.971,268.175 174.833,268.176C174.696,268.177 174.439,268.286 174.263,268.419M175.925,268.401C176.482,268.644 176.927,269.218 177.045,269.846C177.119,270.238 177.122,270.237 177.144,269.804C177.171,269.271 176.21,268.163 175.73,268.173C175.514,268.178 175.575,268.249 175.925,268.401M180.96,268.285C181.168,268.324 181.468,268.323 181.627,268.281C181.786,268.239 181.617,268.207 181.25,268.209C180.883,268.211 180.753,268.245 180.96,268.285M185.733,268.733C184.052,270.414 186.325,273.274 188.132,271.753C189.329,270.746 188.973,268.145 187.641,268.171C187.518,268.174 187.615,268.299 187.857,268.449C189.46,269.444 188.843,272.011 187.005,271.995C185.234,271.979 184.665,269.44 186.219,268.492C186.511,268.314 186.649,268.168 186.525,268.167C186.401,268.167 186.045,268.422 185.733,268.733M203.625,268.347C203.368,268.496 202.833,269.326 202.833,269.575C202.833,269.625 203.658,269.667 204.667,269.667C206.709,269.667 206.854,269.568 206.067,268.718L205.634,268.25L205.984,268.731C206.517,269.464 206.456,269.5 204.657,269.5L202.981,269.5L203.275,269.002C203.437,268.729 203.76,268.435 203.993,268.349C204.226,268.263 204.304,268.189 204.167,268.185C204.029,268.18 203.785,268.253 203.625,268.347M213.258,268.576C213.483,268.801 213.667,269.058 213.667,269.148C213.667,269.238 213.817,269.358 214,269.417C214.267,269.502 214.333,269.669 214.333,270.261C214.333,270.668 214.39,271 214.458,271C214.527,271 214.557,270.625 214.526,270.167C214.486,269.601 214.395,269.333 214.24,269.333C214.114,269.333 213.922,269.165 213.812,268.958C213.61,268.58 213.182,268.182 212.966,268.172C212.901,268.169 213.033,268.351 213.258,268.576M216.016,268.6C215.06,269.817 215.634,272.21 216.867,272.147C217.207,272.13 217.213,272.119 216.917,272.047C215.645,271.74 215.235,269.583 216.253,268.565C216.472,268.346 216.585,268.167 216.505,268.167C216.424,268.167 216.204,268.362 216.016,268.6M218.118,268.49C219.197,269.497 218.861,271.736 217.583,272.047C217.258,272.126 217.259,272.128 217.594,272.147C219.04,272.229 219.428,268.787 218.032,268.254C217.833,268.178 217.858,268.247 218.118,268.49M222.98,268.447C223.089,268.66 223.167,269.684 223.167,270.903L223.167,272.994L223.585,273.099C224.367,273.295 224.5,272.977 224.5,270.919C224.5,269.258 224.541,268.99 224.86,268.564L225.22,268.083L224.819,268.462C224.447,268.812 224.41,268.996 224.333,270.879L224.25,272.917L223.417,272.917L223.333,270.716C223.274,269.156 223.183,268.452 223.021,268.299C222.829,268.118 222.822,268.141 222.98,268.447M191.062,270.083C191.063,271.092 191.09,271.483 191.123,270.952C191.157,270.422 191.156,269.597 191.123,269.119C191.089,268.641 191.062,269.075 191.062,270.083M192.202,269.954C192.167,271.619 192.594,272.629 193.112,272.111C193.167,272.055 193.018,271.935 192.779,271.844C192.356,271.683 192.344,271.637 192.291,269.965L192.237,268.25L192.202,269.954M194.7,268.533C194.59,268.643 194.506,268.887 194.513,269.075C194.524,269.357 194.555,269.338 194.69,268.969C194.781,268.722 194.981,268.487 195.135,268.446C195.363,268.386 195.367,268.368 195.158,268.353C195.016,268.342 194.81,268.423 194.7,268.533M197.173,268.698C196.423,269.504 196.66,269.667 198.583,269.667C200.162,269.667 200.333,269.637 200.333,269.365C200.333,269.075 199.768,268.333 199.548,268.333C199.49,268.333 199.605,268.507 199.804,268.719C200.447,269.403 200.295,269.5 198.583,269.5C196.871,269.5 196.72,269.403 197.362,268.719C197.562,268.507 197.677,268.333 197.619,268.333C197.561,268.333 197.36,268.497 197.173,268.698M211.268,268.647C210.483,269.514 210.607,271.14 211.516,271.904C212.377,272.629 213.47,272.35 213.754,271.333C213.833,271.052 213.816,270.971 213.702,271.083C213.609,271.175 213.506,271.398 213.473,271.58C213.395,272.014 212.635,272.279 212.059,272.074C210.954,271.68 210.535,269.877 211.306,268.834C211.721,268.273 211.7,268.169 211.268,268.647M178.217,270.167C178.217,270.671 178.248,270.877 178.286,270.625C178.324,270.373 178.324,269.96 178.286,269.708C178.248,269.456 178.217,269.662 178.217,270.167M207.631,270C207.591,270.275 207.62,270.5 207.696,270.5C207.771,270.5 207.833,270.275 207.833,270C207.833,269.725 207.804,269.5 207.769,269.5C207.733,269.5 207.671,269.725 207.631,270M177,270.644C177,271.122 176.372,271.812 175.781,271.983C175.34,272.111 175.316,272.139 175.642,272.152C176.129,272.17 177.167,271.171 177.167,270.683C177.167,270.491 177.129,270.333 177.083,270.333C177.037,270.333 177,270.473 177,270.644M196.765,270.833C197.065,272.155 198.821,272.607 199.916,271.644C200.244,271.357 200.48,271.091 200.443,271.054C200.405,271.016 200.146,271.213 199.866,271.493C198.956,272.403 197.457,272.125 196.914,270.946C196.726,270.539 196.692,270.513 196.765,270.833M202.84,270.641C202.794,272.228 205.588,272.738 206.358,271.283C206.487,271.039 206.381,271.098 206.042,271.458C205.148,272.409 203.595,272.137 203.073,270.937C202.948,270.651 202.843,270.518 202.84,270.641M173.5,270.95C173.5,271.29 174.515,272.167 174.888,272.15C175.233,272.134 175.234,272.128 174.917,272.025C174.404,271.858 174.089,271.622 173.782,271.171C173.627,270.945 173.5,270.845 173.5,270.95M201.333,271.251C201.333,271.419 200.995,271.882 200.58,272.279C200.166,272.675 199.9,273 199.989,273C200.444,273 201.694,271.305 201.432,271.043C201.378,270.989 201.333,271.082 201.333,271.251M207.333,271.502C207.216,271.783 206.85,272.243 206.519,272.524C206.188,272.805 206.067,272.959 206.25,272.866C206.841,272.567 207.826,271.27 207.619,271.064C207.578,271.023 207.449,271.22 207.333,271.502M177.922,271.483C177.863,271.671 177.499,272.099 177.115,272.436C176.552,272.929 176.515,272.991 176.924,272.758C177.45,272.458 178.285,271.396 178.123,271.234C178.072,271.183 177.982,271.295 177.922,271.483M214.541,272.059C214.258,272.68 213.553,273.07 212.508,273.184L211.583,273.284L212.383,273.309C213.282,273.336 213.98,273.04 214.464,272.425L214.79,272.01L215.103,272.355C215.49,272.783 216.217,273.169 216.617,273.159C216.782,273.155 216.617,273.045 216.25,272.915C215.883,272.784 215.392,272.443 215.159,272.157L214.734,271.636L214.541,272.059M202.5,272.23C202.935,272.719 203.806,273.25 203.945,273.111C203.989,273.067 203.865,272.979 203.668,272.917C203.472,272.855 203.035,272.57 202.697,272.283C202.121,271.794 202.109,271.791 202.5,272.23M208.162,272.423C207.859,272.787 208.151,273.25 208.685,273.25C209.017,273.25 209.083,273.166 209.083,272.75C209.083,272.165 208.537,271.971 208.162,272.423M208.97,272.793C209.01,273.074 208.94,273.167 208.688,273.167C208.289,273.167 208.1,272.915 208.235,272.563C208.377,272.192 208.908,272.358 208.97,272.793M173.333,273.583C173.333,274.686 172.682,275.269 172.448,274.375C172.392,274.161 172.367,274.187 172.353,274.469C172.336,274.807 172.401,274.848 172.875,274.802L173.417,274.75L173.466,273.705C173.516,272.668 173.519,272.661 173.878,272.913C174.078,273.052 174.353,273.167 174.489,273.167C174.625,273.167 174.443,273.017 174.083,272.833C173.724,272.65 173.408,272.5 173.381,272.5C173.355,272.5 173.333,272.987 173.333,273.583M61.742,273.375L61.083,274.083L61.792,273.425C62.45,272.812 62.577,272.667 62.45,272.667C62.423,272.667 62.105,272.985 61.742,273.375M197.24,272.907C197.418,273.05 197.681,273.161 197.824,273.154C198.048,273.142 198.049,273.128 197.833,273.048C197.696,272.997 197.433,272.886 197.25,272.802C196.922,272.651 196.922,272.652 197.24,272.907M37.495,278.792L36.417,279.917L37.542,278.838C38.587,277.836 38.743,277.667 38.62,277.667C38.595,277.667 38.088,278.173 37.495,278.792M42.332,282.625L39.25,285.75L42.375,282.668C44.094,280.973 45.5,279.567 45.5,279.543C45.5,279.425 45.195,279.722 42.332,282.625" style="fill:rgb(76,26,77);"/>
        <rect x="165.908" y="264.661" width="70.622" height="12.489" style="fill:rgb(29,22,47);"/>
    </g>
</svg>
